<svg width="243" height="270" viewBox="0 0 243 270" fill="none" xmlns="http://www.w3.org/2000/svg">
<path d="M118.398 0.29955C116.54 0.48799 114.198 0.78411 113.148 0.97255C107.468 1.91475 106.23 2.13011 104.399 2.48007C103.295 2.72235 100.738 3.36844 98.746 3.93376C96.7539 4.49908 94.3849 5.14516 93.4696 5.36052C89.5393 6.35656 78.2868 10.906 73.0373 13.625C69.3224 15.5363 68.4071 16.0747 63.6153 18.9551C45.0405 30.2346 29.2923 46.6827 17.6898 66.9535C13.7326 73.8988 8.13323 86.1744 6.97567 90.4816C6.81415 91.0738 6.22191 93.012 5.65659 94.7888C5.06435 96.5655 4.41827 98.8537 4.17599 99.9036C3.01843 104.938 2.10315 109.245 1.83395 110.941C1.64551 111.964 1.34939 113.74 1.16095 114.844C-0.400413 123.378 -0.373493 144.887 1.16095 154.632C1.91471 159.424 2.10315 160.366 3.36839 166.261C5.36047 175.737 8.67163 184.944 13.8403 195.55C14.3787 196.6 14.9709 197.489 15.1593 197.489C15.4016 197.489 15.5901 197.004 15.6977 196.196C16.5323 190.247 18.7666 181.767 20.8664 176.626C21.5394 174.983 21.7278 174.553 24.1775 169.357L25.5505 166.396L24.8505 163.973C24.2045 161.685 23.2892 157.135 22.5893 152.936C22.4277 151.886 22.1047 150.029 21.8893 148.763C21.674 147.498 21.3779 143.81 21.2163 140.526C20.7856 132.261 21.2702 124.105 22.5623 117.132C22.6969 116.379 23.0469 114.333 23.3699 112.556C23.9622 109.191 26.9772 97.9384 27.4349 97.4808C27.8117 97.1039 27.9463 97.2923 31.0691 102.865C34.4879 108.949 38.1221 114.387 43.9368 122.113C47.6518 127.039 50.5592 130.673 52.3897 132.638C54.2472 134.657 54.2472 135.169 52.3897 137.188C50.7476 138.938 50.5053 139.234 44.0445 148.09C40.3296 153.178 35.2148 161.254 32.6574 166.127C27.2464 176.356 25.0121 182.09 22.8315 191.297C22.4008 193.154 21.7547 198.781 21.7547 200.719C21.7817 207.261 24.366 213.479 28.7001 217.409C31.9844 220.371 36.0224 222.174 42.4832 223.628C44.5829 224.086 52.8473 224.247 56.4815 223.897C64.9075 223.089 65.7689 222.928 76.2678 220.101C81.3556 218.755 87.5472 216.736 90.4008 215.525C91.7737 214.933 93.012 214.448 93.1466 214.448C93.4696 214.448 101.169 211.245 104.13 209.899C109.783 207.314 112.529 205.968 115.167 204.488C116.729 203.626 118.909 202.442 120.013 201.85C123.378 200.073 126.554 198.269 127.739 197.462C128.358 197.031 129.112 196.681 129.408 196.681C129.839 196.681 137.242 200.531 138.184 201.257C138.884 201.796 151.455 208.095 153.42 208.903C154.659 209.414 157.189 210.464 159.047 211.218C167.284 214.61 174.956 217.302 181.66 219.159C183.652 219.698 186.559 220.505 188.12 220.936C193.8 222.497 197.542 223.116 205.888 223.924C209.872 224.274 217.679 224.059 220.963 223.466C233.373 221.232 240.991 214.017 242.014 203.465C243.01 193.531 239.672 180.448 233.158 168.684C232.7 167.877 231.865 166.342 231.327 165.319C228.097 159.397 220.613 148.225 219.859 148.225C219.509 148.225 219.321 148.763 218.944 150.567C218.163 154.578 216.925 159.531 215.956 162.546C214.879 165.965 214.825 166.773 215.686 167.796C216.709 169.034 217.867 171.268 219.698 175.549C222.39 181.821 224.193 188.578 224.193 192.239C224.193 194.366 223.332 197.892 222.309 199.938C221.34 201.85 218.701 204.595 216.79 205.672C212.402 208.122 204.353 209.253 198.081 208.31C184.19 206.184 169.626 201.338 153.663 193.504C146.637 190.059 143.702 188.417 143.702 187.905C143.702 187.555 144.941 186.505 147.902 184.432C152.882 180.96 163.004 173.153 165.804 170.703C166.477 170.111 167.984 168.846 169.169 167.877C179.398 159.531 197.219 141.899 206.103 131.319C208.768 128.116 217.032 117.563 218.648 115.248C224.489 106.984 229.362 98.9614 232.996 91.693C236.549 84.6399 239.215 77.4792 240.937 70.4262C241.745 67.2227 241.772 66.792 241.799 61.1388C241.826 54.6241 241.691 53.7627 240.157 49.9939C238.326 45.5252 236.173 42.8062 232.565 40.4373C227.262 36.9646 221.474 35.4571 213.291 35.4302C205.457 35.4302 198.188 36.7492 185.428 40.518C181.229 41.7564 178.537 42.7524 169.249 46.5481C163.004 49.1055 155.816 52.632 146.179 57.9084C143.056 59.6312 137.457 62.9693 133.204 65.6882C131.05 67.0612 128.519 68.5687 127.55 69.0263C125.962 69.7801 123.97 71.1261 117.563 75.7563C116.459 76.537 114.79 77.9099 113.821 78.7714C112.852 79.6597 111.102 81.0596 109.918 81.8941C104.076 86.0667 91.0199 96.9693 82.9439 104.399C77.9099 109.056 68.3263 118.936 68.3263 119.501C68.3263 120.282 76.9946 129.65 77.7214 129.65C77.9099 129.65 80.3327 127.389 83.1054 124.589C89.97 117.698 103.834 105.072 107.872 102.057C108.276 101.761 110.456 100.011 112.744 98.1538C123.782 89.2163 133.042 82.5671 145.318 74.8141C155.251 68.5148 169.438 61.1657 177.918 57.9084C179.318 57.37 180.987 56.7239 181.66 56.4547C182.333 56.1586 183.975 55.6202 185.294 55.2164C186.64 54.8395 188.82 54.1665 190.139 53.7627C195.146 52.2013 198.404 51.6629 204.299 51.3937C207.88 51.2322 211.568 51.6629 213.99 52.5244C215.821 53.1704 218.863 55.1894 220.263 56.697C220.963 57.4507 221.905 58.8506 222.336 59.7928C223.224 61.7579 224.193 65.8228 224.193 67.5457C224.193 70.3454 222.147 78.7444 220.559 82.5671C219.24 85.7167 215.094 93.7927 213.129 96.9962C212.079 98.746 210.06 101.869 208.633 103.942C207.207 106.014 205.672 108.249 205.215 108.922C204.757 109.595 203.276 111.587 201.903 113.364C199.588 116.379 198.027 118.263 191.243 126.339C187.743 130.485 173.126 145.075 167.123 150.405C155.439 160.797 151.213 164.189 135.761 175.549C132.234 178.16 129.812 179.721 129.3 179.721C128.627 179.721 122.166 175.495 115.436 170.622C108.868 165.858 105.987 163.596 99.0152 157.808C90.7238 150.917 86.9281 147.471 78.9598 139.637C61.7309 122.705 49.7246 107.28 42.6985 93.039C39.9527 87.4665 36.5608 79.2021 36.5608 78.0445C36.5608 77.8022 37.0184 76.86 37.5837 75.9717C38.149 75.0564 39.0912 73.5489 39.6566 72.5798C41.1102 70.0762 45.2021 64.2615 47.5172 61.3541C55.9432 50.7746 68.0841 40.4373 79.229 34.3534C91.4776 27.6503 102.649 23.8546 116.379 21.7279C118.398 21.4048 126.016 20.6511 128.223 20.5434L129.569 20.4896V10.26V0.0303499L125.666 0.00342988C123.512 -0.0234901 120.255 0.11111 118.398 0.29955ZM69.6454 150.944C75.514 156.705 84.263 164.619 87.7357 167.338C88.5971 168.011 91.6391 170.434 94.4926 172.749C100.173 177.325 103.942 180.152 109.514 184.029C114.575 187.528 114.898 187.77 114.898 188.147C114.898 188.632 111.641 190.57 104.803 194.124C93.0928 200.207 80.1712 204.972 68.4609 207.53C59.7927 209.414 53.1704 208.876 47.5441 205.834C45.6059 204.784 42.6447 201.688 41.8102 199.831C41.0564 198.188 40.0604 193.908 40.0604 192.266C40.0604 191.701 40.2488 190.166 40.4911 188.901C42.214 179.694 46.8173 169.519 54.2741 158.589C58.5275 152.371 63.6692 145.775 64.2614 145.802C64.3691 145.802 66.765 148.117 69.6454 150.944Z" fill="#0A1628"/>
<path d="M60.3311 160.177C56.5085 165.696 50.0207 177.514 50.0207 179.021C50.0207 181.175 57.2622 192.562 61.8386 197.623C62.5116 198.377 63.5884 199.561 64.2345 200.288C65.3921 201.58 65.3921 201.58 66.7919 201.419C71.5298 200.8 86.4166 196.331 86.5781 195.496C86.6319 195.2 86.2281 194.635 85.5282 194.043C80.548 189.789 75.0833 183.705 71.6913 178.645C68.1917 173.449 64.2345 165.346 62.6462 160.07C62.1078 158.374 61.5963 158.401 60.3311 160.177Z" fill="#0A1628"/>
<path d="M122.839 38.5259C111.21 39.6566 101.573 42.4024 91.0737 47.5441C81.2749 52.3359 70.4261 60.8157 62.9693 69.4839C58.2044 75.0025 53.2781 82.594 49.7246 89.8893L48.8093 91.7199L49.7515 93.5235C52.3359 98.5306 55.1625 102.999 58.7428 107.764C61.8925 111.991 62.1078 112.098 62.6731 109.676C64.073 103.699 69.0801 93.1466 73.3873 87.0089C77.4791 81.1672 85.9859 72.8489 91.8813 68.8917C97.6422 65.0421 104.238 61.9463 110.995 59.9273C117.94 57.8545 123.862 56.9661 130.808 56.9661C135.546 56.9661 135.546 56.9661 137.941 55.5932C139.261 54.8395 140.633 54.0049 141.01 53.7627C142.141 52.982 150.029 48.8094 154.605 46.5212C157.028 45.3367 158.939 44.233 158.993 43.9907C159.154 43.21 151.644 40.9218 144.645 39.6297C143.325 39.3605 141.603 39.0643 140.849 38.9028C139.18 38.5798 131.75 38.1221 128.627 38.176C127.362 38.176 124.778 38.3375 122.839 38.5259Z" fill="#0A1628"/>
<path d="M125.397 116.325C121.332 117.321 117.644 119.474 115.382 122.193C113.579 124.374 111.452 128.789 111.075 131.185C110.671 133.796 110.941 138.588 111.614 140.472C112.637 143.299 113.767 145.398 115.356 147.283C119.205 151.886 125.477 154.336 131.642 153.663C136.165 153.178 140.257 151.294 143.352 148.279C144.914 146.771 146.798 143.433 147.66 140.687C148.306 138.668 148.386 137.968 148.386 134.63C148.386 131.481 148.306 130.539 147.794 128.95C147.148 126.85 144.941 123.001 143.622 121.628C141.333 119.232 137.78 117.159 134.55 116.325C132.611 115.813 127.443 115.813 125.397 116.325Z" fill="#0A1628"/>
<path d="M39.6565 127.227C39.3066 127.82 39.1989 131.238 39.3873 136.73C39.5489 141.28 39.6565 142.572 39.9527 142.679C40.1949 142.76 40.9487 142.006 41.9986 140.66C42.9408 139.449 44.2599 137.753 44.9867 136.838C45.6866 135.923 46.2519 135.034 46.2519 134.846C46.2519 134.657 45.552 133.688 44.6906 132.692C43.8561 131.669 42.4562 129.973 41.5948 128.896C40.7333 127.847 39.9796 126.958 39.9257 126.958C39.8719 126.958 39.7642 127.066 39.6565 127.227Z" fill="#0A1628"/>
<path d="M113.552 212.106C107.28 215.337 100.038 218.594 95.2194 220.371C92.7159 221.286 92.3121 221.582 92.7159 221.986C93.2812 222.551 101.061 225.781 104.695 226.966C107.926 227.989 112.744 229.093 118.398 230.062C122.139 230.708 129.381 230.977 134.738 230.654C137.672 230.492 140.741 230.223 141.549 230.089C142.356 229.954 144.241 229.631 145.721 229.389C152.128 228.285 156.57 226.966 163.246 224.112C167.553 222.282 168.2 221.905 167.769 221.447C167.527 221.205 163.731 219.644 158.239 217.571C156.785 217.006 149.302 213.614 146.044 212.025C142.841 210.491 143.137 210.518 138.453 211.191C133.473 211.891 128.789 212.106 125.128 211.756C123.135 211.595 120.767 211.325 119.878 211.164C116.298 210.599 116.567 210.572 113.552 212.106Z" fill="#0A1628"/>
<path d="M67.1957 228.608C66.9534 228.85 61.6771 229.631 55.7816 230.304C51.0168 230.869 46.1981 230.6 39.1989 229.362C37.2876 229.039 37.8798 230.008 41.7563 233.642C46.9788 238.568 51.4206 242.122 58.5005 247.075C60.4388 248.421 66.8457 252.405 67.1149 252.405C67.1688 252.405 68.0841 252.917 69.1878 253.563C75.7024 257.412 85.6898 261.666 94.035 264.142C99.2305 265.677 106.068 267.4 108.222 267.75C116.782 269.042 117.132 269.096 123.351 269.365C126.877 269.553 129.354 269.553 129.489 269.419C129.65 269.257 129.758 264.708 129.758 258.974V248.771L126.016 248.583C120.74 248.313 114.521 247.452 108.437 246.133C105.987 245.595 97.7499 243.199 94.8426 242.176C92.3659 241.287 84.2899 237.949 83.8053 237.599C83.6707 237.492 82.3786 236.819 80.9787 236.119C78.0445 234.638 74.4372 232.511 70.7761 230.116C68.4609 228.581 67.5726 228.204 67.1957 228.608Z" fill="#0A1628"/>
<path d="M185.698 61.381C183.006 62.3501 175.333 65.6075 170.703 67.7611C169.465 68.3264 168.469 68.9455 168.469 69.134C168.469 69.3493 169.169 69.9954 170.03 70.6146C173.207 72.8759 178.779 78.0983 181.983 81.8402C186.64 87.2781 190.301 92.9851 193.181 99.2305C194.823 102.838 195.173 103.699 196.25 106.984C196.546 107.926 196.977 108.76 197.219 108.868C197.704 109.056 198.808 107.845 200.692 105.072C201.392 104.022 202.388 102.676 202.873 102.111C203.357 101.519 204.434 99.8766 205.268 98.4499C206.103 97.0231 207.126 95.2464 207.584 94.5195C209.279 91.7199 209.926 90.4546 209.926 89.8624C209.926 88.974 207.799 84.936 204.461 79.4443C202.226 75.8101 196.923 68.9994 193.666 65.6075C188.686 60.4388 188.524 60.3311 185.698 61.381Z" fill="#3D52A0"/>
<path d="M117.321 64.2346C111.156 65.6613 100.9 69.8339 100.9 70.8838C100.926 71.2338 102.461 72.1221 106.768 74.2219C110.348 75.9717 112.987 77.4254 113.498 77.9638L114.36 78.8252L115.248 78.0984C116.136 77.3715 119.905 74.5988 122.247 72.9566C125.585 70.5608 126.151 70.2108 126.662 70.0493C126.958 69.9416 127.416 69.6455 127.658 69.3763C128.196 68.784 128.358 68.8917 123.082 66.0113C119.609 64.1269 118.828 63.8846 117.321 64.2346Z" fill="#3D52A0"/>
<path d="M146.314 81.4634C145.129 82.1094 139.88 85.5552 137.242 87.4396C136.084 88.2741 135.196 89.1086 135.142 89.4317C135.115 89.7816 135.465 90.1854 136.353 90.7507C139.987 93.0928 151.886 101.707 154.901 104.211C155.789 104.938 158.024 106.768 159.854 108.249C161.685 109.729 164.135 111.775 165.346 112.798C168.173 115.221 178.806 125.02 180.125 126.42C180.69 127.012 181.39 127.497 181.66 127.497C181.956 127.497 183.248 126.312 184.782 124.589C186.236 123.001 187.824 121.278 188.282 120.767C189.789 119.151 191.082 117.321 191.082 116.863C191.082 116.217 188.04 113.121 181.956 107.603C174.607 100.953 174.257 100.63 169.169 96.5655C164.215 92.5544 163.166 91.7737 155.763 86.3628C153.367 84.6399 148.306 81.3288 147.713 81.1134C147.444 81.0326 146.825 81.1942 146.314 81.4634Z" fill="#3D52A0"/>
<path d="M218.89 124.912C217.975 126.554 208.418 137.807 203.492 143.083C200.53 146.26 199.723 147.39 199.696 148.467C199.696 148.817 199.534 149.786 199.319 150.621C199.131 151.455 198.808 152.855 198.619 153.744C198 156.678 197.246 159.639 196.816 160.877C192.67 172.614 186.774 181.848 177.891 190.597C173.099 195.308 172.911 195.685 174.795 196.304C180.314 198.135 183.517 199.131 185.563 199.615C187.797 200.181 188.766 200.423 192.185 201.257C194.797 201.93 194.77 201.957 201.203 193.424C202.711 191.432 204.407 189.036 204.999 188.067C207.826 183.436 209.656 180.314 209.656 180.098C209.656 179.991 210.356 178.375 211.218 176.518C212.106 174.66 213.21 171.995 213.721 170.595C214.314 168.926 214.798 168.011 215.148 167.903C215.552 167.742 215.66 167.392 215.713 166.1C215.767 165.238 216.09 163.65 216.467 162.627C217.355 160.204 218.594 155.386 219.374 151.509C219.698 149.84 220.074 148.413 220.182 148.333C220.317 148.279 220.263 147.929 220.128 147.579C219.913 147.148 219.913 146.26 220.155 144.564C220.828 139.234 220.747 126.904 219.994 124.966C219.778 124.428 219.186 124.401 218.89 124.912Z" fill="#3D52A0"/>
</svg>
