<svg width="930" height="243" viewBox="0 0 930 243" fill="none" xmlns="http://www.w3.org/2000/svg">
<g clip-path="url(#clip0_0_1)">
<path d="M103.981 13.2378C102.507 13.3873 100.648 13.6224 99.8144 13.772C95.3056 14.5199 94.3227 14.6908 92.8696 14.9686C91.9935 15.1609 89.9635 15.6738 88.3822 16.1225C86.801 16.5712 84.9205 17.0841 84.194 17.255C81.0742 18.0457 72.1422 21.6569 67.9753 23.8152C65.0265 25.3323 64.3 25.7597 60.4964 28.0461C45.7521 36.9995 33.2516 50.0556 24.0418 66.1461C20.9006 71.6591 16.456 81.4032 15.5371 84.8221C15.4089 85.2922 14.9388 86.8308 14.4901 88.2411C14.02 89.6514 13.5071 91.4677 13.3148 92.3011C12.396 96.297 11.6694 99.7159 11.4557 101.062C11.3062 101.874 11.0711 103.284 10.9215 104.161C9.68216 110.934 9.70353 128.008 10.9215 135.743C11.5198 139.547 11.6694 140.295 12.6737 144.974C14.255 152.496 16.8833 159.804 20.9861 168.223C21.4135 169.057 21.8836 169.762 22.0331 169.762C22.2255 169.762 22.375 169.377 22.4605 168.736C23.1229 164.014 24.8965 157.283 26.5633 153.201C27.0975 151.898 27.247 151.556 29.1916 147.432L30.2814 145.081L29.7258 143.158C29.2129 141.342 28.4864 137.73 27.9308 134.397C27.8026 133.564 27.5462 132.089 27.3753 131.085C27.2043 130.081 26.9693 127.153 26.841 124.546C26.4991 117.986 26.8838 111.511 27.9095 105.977C28.0163 105.379 28.2941 103.755 28.5505 102.344C29.0206 99.6732 31.4139 90.7412 31.7772 90.3779C32.0763 90.0788 32.1832 90.2283 34.6619 94.6516C37.3757 99.4809 40.2604 103.797 44.876 109.93C47.8249 113.84 50.1327 116.725 51.5857 118.285C53.0602 119.888 53.0602 120.294 51.5857 121.896C50.2823 123.285 50.0899 123.52 44.9615 130.551C42.0127 134.589 37.9526 141 35.9226 144.868C31.6276 152.988 29.854 157.539 28.1231 164.847C27.7813 166.321 27.2684 170.787 27.2684 172.326C27.2898 177.519 29.3412 182.455 32.7815 185.574C35.3884 187.925 38.5937 189.357 43.7221 190.511C45.3889 190.874 51.949 191.002 54.8337 190.724C61.5221 190.083 62.2059 189.955 70.5396 187.711C74.5782 186.643 79.4929 185.04 81.758 184.079C82.8478 183.609 83.8307 183.224 83.9376 183.224C84.194 183.224 90.3054 180.681 92.6559 179.613C97.1433 177.561 99.3229 176.493 101.417 175.318C102.656 174.634 104.387 173.694 105.263 173.223C107.934 171.813 110.456 170.381 111.396 169.74C111.888 169.399 112.486 169.121 112.721 169.121C113.063 169.121 118.939 172.176 119.687 172.753C120.243 173.181 130.222 178.181 131.782 178.822C132.765 179.228 134.773 180.061 136.248 180.66C142.786 183.352 148.876 185.489 154.197 186.963C155.778 187.391 158.086 188.032 159.326 188.374C163.834 189.613 166.805 190.105 173.429 190.746C176.591 191.023 182.788 190.852 185.395 190.382C195.246 188.609 201.293 182.882 202.105 174.506C202.896 166.621 200.246 156.236 195.075 146.898C194.712 146.256 194.049 145.038 193.622 144.226C191.058 139.525 185.117 130.657 184.519 130.657C184.241 130.657 184.092 131.085 183.792 132.517C183.173 135.7 182.19 139.632 181.421 142.026C180.566 144.739 180.523 145.38 181.207 146.192C182.019 147.175 182.938 148.949 184.391 152.346C186.528 157.325 187.959 162.689 187.959 165.595C187.959 167.283 187.276 170.082 186.464 171.706C185.694 173.223 183.6 175.403 182.083 176.258C178.6 178.202 172.211 179.1 167.232 178.352C156.206 176.664 144.645 172.817 131.974 166.599C126.397 163.864 124.068 162.561 124.068 162.155C124.068 161.877 125.051 161.043 127.401 159.398C131.354 156.642 139.389 150.445 141.611 148.5C142.145 148.03 143.342 147.026 144.282 146.256C152.402 139.632 166.548 125.636 173.6 117.238C175.715 114.695 182.275 106.319 183.557 104.481C188.194 97.921 192.062 91.5532 194.947 85.7837C197.767 80.1852 199.883 74.5012 201.25 68.9026C201.892 66.3598 201.913 66.0179 201.934 61.5305C201.956 56.3593 201.849 55.6755 200.631 52.684C199.178 49.1368 197.468 46.9786 194.605 45.0981C190.395 42.3416 185.801 41.145 179.305 41.1236C173.087 41.1236 167.317 42.1707 157.189 45.1623C153.855 46.1452 151.718 46.9358 144.346 49.9488C139.389 51.9788 133.683 54.7781 126.033 58.9663C123.555 60.3339 119.11 62.9836 115.734 65.1418C114.024 66.2316 112.016 67.4282 111.246 67.7915C109.986 68.3898 108.404 69.4582 103.319 73.1336C102.443 73.7533 101.118 74.8431 100.349 75.5268C99.5793 76.232 98.1904 77.3432 97.2501 78.0056C92.6132 81.3177 82.2495 89.9719 75.8389 95.8696C71.843 99.5664 64.2359 107.409 64.2359 107.857C64.2359 108.477 71.1165 115.913 71.6935 115.913C71.843 115.913 73.7662 114.118 75.9671 111.896C81.4161 106.426 92.4209 96.4038 95.6261 94.0106C95.9467 93.7755 97.6775 92.3866 99.4938 90.9121C108.255 83.8178 115.606 78.5398 125.35 72.3857C133.235 67.3855 144.496 61.5519 151.227 58.9663C152.338 58.5389 153.663 58.0261 154.197 57.8124C154.731 57.5773 156.035 57.15 157.082 56.8294C158.15 56.5303 159.881 55.9961 160.928 55.6755C164.903 54.4362 167.488 54.0088 172.168 53.7951C175.01 53.6669 177.937 54.0088 179.861 54.6926C181.314 55.2054 183.728 56.8081 184.839 58.0047C185.395 58.603 186.143 59.7142 186.485 60.4621C187.19 62.022 187.959 65.2486 187.959 66.6162C187.959 68.8385 186.335 75.5055 185.075 78.5398C184.027 81.0399 180.737 87.4504 179.177 89.9933C178.343 91.3822 176.741 93.861 175.608 95.5064C174.476 97.1517 173.258 98.9253 172.895 99.4595C172.531 99.9937 171.356 101.575 170.266 102.985C168.429 105.379 167.189 106.874 161.804 113.285C159.026 116.576 147.423 128.157 142.658 132.388C133.384 140.637 130.029 143.329 117.764 152.346C114.965 154.419 113.041 155.659 112.635 155.659C112.101 155.659 106.973 152.304 101.631 148.436C96.4168 144.654 94.1303 142.859 88.5959 138.265C82.0144 132.794 79.0015 130.059 72.6764 123.841C59.0006 110.4 49.4703 98.156 43.8931 86.8521C41.7135 82.4289 39.0211 75.8687 39.0211 74.9499C39.0211 74.7576 39.3843 74.0097 39.8331 73.3045C40.2818 72.578 41.0297 71.3814 41.4784 70.6121C42.6323 68.6248 45.8803 64.0092 47.718 61.7014C54.4064 53.3036 64.0435 45.0981 72.8901 40.2689C82.6127 34.9481 91.4807 31.9352 102.379 30.2471C103.981 29.9906 110.028 29.3923 111.781 29.3069L112.849 29.2641V21.1441V13.0241L109.751 13.0027C108.041 12.9813 105.456 13.0882 103.981 13.2378ZM65.2829 132.816C69.9412 137.389 76.886 143.671 79.6425 145.829C80.3263 146.363 82.741 148.286 85.006 150.124C89.5148 153.757 92.5063 156 96.9296 159.078C100.947 161.855 101.203 162.048 101.203 162.347C101.203 162.732 98.6177 164.27 93.1901 167.091C83.8948 171.92 73.638 175.702 64.3427 177.732C57.4621 179.228 52.2054 178.801 47.7394 176.386C46.2009 175.553 43.8503 173.095 43.1879 171.621C42.5896 170.317 41.799 166.92 41.799 165.616C41.799 165.168 41.9485 163.95 42.1409 162.945C43.5084 155.637 47.1625 147.56 53.0815 138.884C56.4577 133.948 60.5391 128.713 61.0092 128.734C61.0947 128.734 62.9965 130.572 65.2829 132.816Z" fill="#0A1628"/>
<path d="M57.8894 140.145C54.8551 144.526 49.7053 153.906 49.7053 155.103C49.7053 156.813 55.4534 165.851 59.0861 169.869C59.6203 170.467 60.475 171.407 60.9879 171.984C61.9067 173.01 61.9067 173.01 63.0179 172.882C66.7787 172.39 78.5955 168.843 78.7237 168.181C78.7664 167.945 78.4459 167.497 77.8903 167.027C73.9372 163.65 69.5994 158.821 66.9069 154.804C64.129 150.68 60.9879 144.248 59.7271 140.06C59.2998 138.713 58.8938 138.735 57.8894 140.145Z" fill="#0A1628"/>
<path d="M107.507 43.581C98.2758 44.4785 90.6259 46.658 82.2922 50.7394C74.5141 54.543 65.9026 61.2741 59.9835 68.1547C56.2013 72.5353 52.2909 78.5612 49.4702 84.352L48.7437 85.8051L49.4916 87.2368C51.543 91.2113 53.7867 94.7585 56.6287 98.5407C59.1288 101.896 59.2997 101.981 59.7485 100.058C60.8596 95.314 64.8342 86.9376 68.2531 82.0656C71.5011 77.4286 78.2536 70.8258 82.9333 67.6846C87.5061 64.6289 92.7414 62.1716 98.1049 60.5689C103.618 58.9235 108.319 58.2184 113.832 58.2184C117.593 58.2184 117.593 58.2184 119.495 57.1286C120.542 56.5303 121.632 55.8679 121.931 55.6755C122.828 55.0559 129.089 51.7437 132.722 49.9274C134.645 48.9872 136.162 48.1111 136.205 47.9188C136.333 47.2991 130.371 45.4828 124.815 44.4571C123.768 44.2434 122.401 44.0084 121.802 43.8801C120.478 43.6237 114.58 43.2605 112.101 43.3032C111.097 43.3032 109.046 43.4314 107.507 43.581Z" fill="#0A1628"/>
<path d="M109.537 105.336C106.31 106.127 103.383 107.836 101.588 109.994C100.156 111.725 98.4681 115.229 98.169 117.131C97.8484 119.204 98.0621 123.008 98.5963 124.503C99.4083 126.747 100.306 128.414 101.567 129.91C104.622 133.564 109.601 135.508 114.494 134.974C118.084 134.589 121.332 133.094 123.79 130.7C125.029 129.504 126.525 126.854 127.209 124.674C127.722 123.072 127.786 122.516 127.786 119.866C127.786 117.366 127.722 116.618 127.316 115.358C126.803 113.691 125.051 110.635 124.003 109.545C122.187 107.644 119.366 105.998 116.802 105.336C115.264 104.93 111.161 104.93 109.537 105.336Z" fill="#0A1628"/>
<path d="M41.4784 113.99C41.2006 114.46 41.1151 117.174 41.2647 121.533C41.3929 125.144 41.4784 126.17 41.7135 126.256C41.9058 126.32 42.5041 125.721 43.3375 124.653C44.0854 123.691 45.1324 122.345 45.7094 121.619C46.2649 120.892 46.7137 120.187 46.7137 120.037C46.7137 119.888 46.1581 119.119 45.4743 118.328C44.8119 117.516 43.7007 116.17 43.0169 115.315C42.3331 114.482 41.7348 113.776 41.6921 113.776C41.6494 113.776 41.5639 113.862 41.4784 113.99Z" fill="#0A1628"/>
<path d="M100.135 181.365C95.156 183.929 89.4079 186.515 85.583 187.925C83.5957 188.651 83.2752 188.886 83.5957 189.207C84.0444 189.656 90.2199 192.22 93.1047 193.16C95.6689 193.972 99.4938 194.848 103.981 195.618C106.951 196.13 112.7 196.344 116.952 196.088C119.281 195.959 121.717 195.746 122.358 195.639C122.999 195.532 124.495 195.276 125.67 195.083C130.756 194.207 134.282 193.16 139.581 190.895C143 189.442 143.513 189.143 143.171 188.78C142.979 188.587 139.966 187.348 135.607 185.703C134.453 185.254 128.512 182.561 125.927 181.301C123.384 180.083 123.619 180.104 119.901 180.638C115.948 181.194 112.229 181.365 109.323 181.087C107.742 180.959 105.862 180.745 105.156 180.617C102.314 180.168 102.528 180.147 100.135 181.365Z" fill="#0A1628"/>
<path d="M63.3384 194.464C63.1461 194.656 58.9579 195.276 54.2782 195.81C50.4959 196.259 46.671 196.045 41.1152 195.062C39.598 194.806 40.0681 195.575 43.1452 198.46C47.2907 202.37 50.8165 205.191 56.4364 209.122C57.9749 210.191 63.0606 213.353 63.2743 213.353C63.317 213.353 64.0436 213.759 64.9197 214.272C70.0908 217.328 78.0185 220.704 84.6428 222.67C88.7669 223.888 94.1945 225.256 95.9039 225.533C102.699 226.559 102.977 226.602 107.913 226.816C110.712 226.965 112.678 226.965 112.785 226.858C112.913 226.73 112.999 223.119 112.999 218.567V210.469L110.028 210.319C105.84 210.105 100.904 209.422 96.0749 208.375C94.1304 207.947 87.5916 206.045 85.2838 205.233C83.3179 204.528 76.9074 201.879 76.5227 201.601C76.4159 201.515 75.3902 200.981 74.279 200.425C71.9499 199.25 69.0865 197.562 66.1804 195.66C64.3427 194.442 63.6375 194.143 63.3384 194.464Z" fill="#0A1628"/>
<path d="M157.402 61.7227C155.266 62.492 149.176 65.0776 145.5 66.7871C144.517 67.2358 143.727 67.7273 143.727 67.8768C143.727 68.0478 144.282 68.5606 144.966 69.0521C147.487 70.8471 151.911 74.9925 154.454 77.9628C158.15 82.2792 161.056 86.8093 163.343 91.7668C164.646 94.6302 164.924 95.314 165.779 97.9209C166.014 98.6688 166.356 99.3312 166.548 99.4167C166.933 99.5663 167.809 98.6047 169.305 96.4037C169.86 95.5704 170.651 94.502 171.035 94.0532C171.42 93.5831 172.275 92.2796 172.937 91.1471C173.6 90.0146 174.412 88.6043 174.775 88.0273C176.121 85.805 176.634 84.8007 176.634 84.3306C176.634 83.6254 174.946 80.4201 172.296 76.061C170.523 73.1762 166.313 67.77 163.727 65.0776C159.774 60.9748 159.646 60.8894 157.402 61.7227Z" fill="#3D52A0"/>
<path d="M103.126 63.9879C98.2331 65.1204 90.0917 68.4325 90.0917 69.2659C90.113 69.5437 91.331 70.2488 94.75 71.9156C97.592 73.3045 99.6861 74.4584 100.092 74.8858L100.776 75.5696L101.481 74.9926C102.186 74.4157 105.178 72.2147 107.037 70.9113C109.687 69.0095 110.135 68.7317 110.541 68.6035C110.776 68.518 111.14 68.2829 111.332 68.0692C111.759 67.5991 111.888 67.6846 107.699 65.3982C104.943 63.9024 104.323 63.7101 103.126 63.9879Z" fill="#3D52A0"/>
<path d="M126.14 77.6637C125.2 78.1765 121.033 80.9117 118.939 82.4075C118.02 83.0699 117.315 83.7323 117.272 83.9887C117.251 84.2665 117.529 84.587 118.234 85.0358C121.119 86.8948 130.564 93.7327 132.957 95.72C133.662 96.297 135.436 97.75 136.889 98.9253C138.342 100.101 140.286 101.725 141.248 102.537C143.491 104.46 151.932 112.238 152.979 113.349C153.428 113.819 153.983 114.204 154.197 114.204C154.432 114.204 155.458 113.264 156.676 111.896C157.83 110.635 159.09 109.268 159.454 108.862C160.65 107.58 161.676 106.126 161.676 105.763C161.676 105.25 159.261 102.793 154.432 98.4124C148.599 93.1344 148.321 92.878 144.282 89.6514C140.35 86.4675 139.517 85.8478 133.641 81.5527C131.739 80.1851 127.722 77.5568 127.251 77.3859C127.038 77.3218 126.546 77.45 126.14 77.6637Z" fill="#3D52A0"/>
<path d="M183.75 112.152C183.023 113.456 175.437 122.388 171.527 126.576C169.176 129.098 168.535 129.995 168.514 130.85C168.514 131.128 168.386 131.897 168.215 132.559C168.065 133.222 167.809 134.333 167.659 135.038C167.168 137.367 166.569 139.718 166.228 140.701C162.937 150.017 158.257 157.347 151.206 164.291C147.402 168.031 147.252 168.33 148.748 168.822C153.129 170.275 155.672 171.065 157.296 171.45C159.069 171.899 159.838 172.091 162.552 172.753C164.625 173.288 164.604 173.309 169.711 166.535C170.907 164.954 172.253 163.052 172.724 162.283C174.967 158.607 176.42 156.129 176.42 155.958C176.42 155.872 176.976 154.59 177.66 153.116C178.365 151.641 179.241 149.526 179.647 148.415C180.117 147.09 180.502 146.363 180.779 146.278C181.1 146.15 181.185 145.872 181.228 144.846C181.271 144.162 181.527 142.902 181.827 142.09C182.532 140.166 183.515 136.342 184.134 133.264C184.391 131.94 184.69 130.807 184.775 130.743C184.882 130.7 184.839 130.422 184.733 130.145C184.562 129.803 184.562 129.098 184.754 127.751C185.288 123.52 185.224 113.734 184.626 112.195C184.455 111.768 183.985 111.746 183.75 112.152Z" fill="#3D52A0"/>
<path d="M260.54 110.27V108.02L262.52 107.84C264.98 107.6 266.84 107.3 268.1 106.94C269.42 106.52 270.32 105.68 270.8 104.42C271.34 103.1 271.61 100.97 271.61 98.03V48.53H258.92C256.16 48.53 253.97 49.07 252.35 50.15C250.79 51.17 249.41 52.85 248.21 55.19C247.07 57.53 245.72 60.65 244.16 64.55L242.27 64.1L244.52 53.03L245.51 45.83L271.16 46.1H279.71L305.45 45.83L306.44 53.03L308.69 64.1L306.71 64.64C305.33 61.16 304.04 58.22 302.84 55.82C301.7 53.42 300.35 51.62 298.79 50.42C297.23 49.16 295.16 48.53 292.58 48.53H279.26V98.03C279.26 100.97 279.5 103.1 279.98 104.42C280.52 105.68 281.45 106.52 282.77 106.94C284.09 107.3 285.95 107.6 288.35 107.84L290.33 108.02V110.27L275.66 110L260.54 110.27ZM328.338 110.99C324.378 110.99 320.928 110.15 317.988 108.47C315.048 106.73 312.738 104.36 311.058 101.36C309.438 98.3 308.628 94.82 308.628 90.92C308.628 86.72 309.528 83 311.328 79.76C313.128 76.46 315.528 73.88 318.528 72.02C321.588 70.1 324.948 69.14 328.608 69.14C333.228 69.14 336.828 70.61 339.408 73.55C342.048 76.49 343.368 80.36 343.368 85.16C343.368 85.88 343.338 86.48 343.278 86.96C343.218 87.44 343.158 87.77 343.098 87.95H315.918C315.858 88.79 315.828 89.63 315.828 90.47C315.828 93.65 316.338 96.62 317.358 99.38C318.378 102.08 319.908 104.24 321.948 105.86C324.048 107.48 326.598 108.29 329.598 108.29C332.418 108.29 334.908 107.51 337.068 105.95C339.288 104.33 340.998 101.96 342.198 98.84L344.358 99.65C341.838 107.21 336.498 110.99 328.338 110.99ZM328.608 71.39C324.888 71.39 321.978 72.71 319.878 75.35C317.838 77.99 316.578 81.5 316.098 85.88H327.528C330.228 85.88 332.268 85.58 333.648 84.98C335.088 84.32 336.048 83.54 336.528 82.64C337.068 81.68 337.338 80.75 337.338 79.85C337.338 77.21 336.438 75.14 334.638 73.64C332.838 72.14 330.828 71.39 328.608 71.39ZM371.409 110.99C367.389 110.99 363.879 110.12 360.879 108.38C357.879 106.64 355.569 104.27 353.949 101.27C352.329 98.27 351.519 94.85 351.519 91.01C351.519 86.81 352.449 83.06 354.309 79.76C356.169 76.46 358.689 73.88 361.869 72.02C365.049 70.1 368.649 69.14 372.669 69.14C374.589 69.14 376.569 69.44 378.609 70.04C380.649 70.64 382.359 71.54 383.739 72.74C385.179 73.94 385.899 75.41 385.899 77.15C385.899 78.47 385.479 79.58 384.639 80.48C383.799 81.32 382.779 81.74 381.579 81.74C380.019 81.74 378.849 81.29 378.069 80.39C377.289 79.49 376.899 78.59 376.899 77.69C376.899 77.21 376.929 76.79 376.989 76.43C377.109 76.07 377.199 75.74 377.259 75.44C377.379 75.14 377.469 74.84 377.529 74.54C377.589 74.18 377.619 73.82 377.619 73.46C377.619 72.62 376.989 72.08 375.729 71.84C374.529 71.54 373.479 71.39 372.579 71.39C368.379 71.39 365.019 73.16 362.499 76.7C359.979 80.18 358.719 84.8 358.719 90.56C358.719 93.74 359.259 96.68 360.339 99.38C361.419 102.08 362.979 104.24 365.019 105.86C367.119 107.48 369.699 108.29 372.759 108.29C375.279 108.29 377.679 107.6 379.959 106.22C382.239 104.78 383.889 102.35 384.909 98.93L387.069 99.65C385.929 103.79 383.889 106.73 380.949 108.47C378.009 110.15 374.829 110.99 371.409 110.99ZM391.094 110.27V108.2L392.534 108.02C394.274 107.78 395.594 107.51 396.494 107.21C397.454 106.85 398.114 106.1 398.474 104.96C398.834 103.76 399.014 101.81 399.014 99.11V55.19C399.014 52.07 398.354 50.09 397.034 49.25C395.774 48.35 394.004 47.9 391.724 47.9H391.094V45.83C393.554 45.83 395.924 45.77 398.204 45.65C400.484 45.47 402.854 45.17 405.314 44.75V76.97C406.694 74.93 408.644 73.13 411.164 71.57C413.684 69.95 416.624 69.14 419.984 69.14C424.064 69.14 427.274 70.19 429.614 72.29C432.014 74.33 433.214 77.27 433.214 81.11V99.11C433.214 101.81 433.394 103.76 433.754 104.96C434.114 106.1 434.744 106.85 435.644 107.21C436.604 107.51 437.954 107.78 439.694 108.02L441.134 108.2V110.27L430.064 110L418.994 110.27V108.2L420.434 108.02C422.174 107.78 423.494 107.51 424.394 107.21C425.354 106.85 426.014 106.1 426.374 104.96C426.734 103.76 426.914 101.81 426.914 99.11V81.11C426.914 78.11 426.134 75.83 424.574 74.27C423.014 72.65 420.824 71.84 418.004 71.84C415.844 71.84 413.894 72.35 412.154 73.37C410.414 74.33 408.974 75.53 407.834 76.97C406.694 78.41 405.854 79.79 405.314 81.11V99.11C405.314 101.81 405.494 103.76 405.854 104.96C406.214 106.1 406.844 106.85 407.744 107.21C408.704 107.51 410.054 107.78 411.794 108.02L413.234 108.2V110.27L402.164 110L391.094 110.27ZM444.647 110.27V108.2L446.087 108.02C447.827 107.78 449.147 107.51 450.047 107.21C451.007 106.85 451.667 106.1 452.027 104.96C452.387 103.76 452.567 101.81 452.567 99.11V80.12C452.567 77 451.907 75.02 450.587 74.18C449.327 73.28 447.557 72.83 445.277 72.83H444.647V70.76C447.107 70.76 449.477 70.7 451.757 70.58C454.037 70.4 456.407 70.1 458.867 69.68V76.97C460.247 74.93 462.197 73.13 464.717 71.57C467.237 69.95 470.177 69.14 473.537 69.14C477.617 69.14 480.827 70.19 483.167 72.29C485.567 74.33 486.767 77.27 486.767 81.11V99.11C486.767 101.81 486.947 103.76 487.307 104.96C487.667 106.1 488.297 106.85 489.197 107.21C490.157 107.51 491.507 107.78 493.247 108.02L494.687 108.2V110.27L483.617 110L472.547 110.27V108.2L473.987 108.02C475.727 107.78 477.047 107.51 477.947 107.21C478.907 106.85 479.567 106.1 479.927 104.96C480.287 103.76 480.467 101.81 480.467 99.11V81.11C480.467 78.11 479.687 75.83 478.127 74.27C476.567 72.65 474.377 71.84 471.557 71.84C469.397 71.84 467.447 72.35 465.707 73.37C463.967 74.33 462.527 75.53 461.387 76.97C460.247 78.41 459.407 79.79 458.867 81.11V99.11C458.867 101.81 459.047 103.76 459.407 104.96C459.767 106.1 460.397 106.85 461.297 107.21C462.257 107.51 463.607 107.78 465.347 108.02L466.787 108.2V110.27L455.717 110L444.647 110.27ZM520.402 110.99C516.562 110.99 513.052 110.06 509.872 108.2C506.752 106.34 504.262 103.85 502.402 100.73C500.602 97.55 499.702 94.04 499.702 90.2C499.702 86.24 500.602 82.67 502.402 79.49C504.262 76.31 506.752 73.79 509.872 71.93C513.052 70.07 516.562 69.14 520.402 69.14C524.302 69.14 527.812 70.07 530.932 71.93C534.052 73.79 536.512 76.31 538.312 79.49C540.172 82.67 541.102 86.24 541.102 90.2C541.102 94.04 540.172 97.55 538.312 100.73C536.512 103.85 534.052 106.34 530.932 108.2C527.812 110.06 524.302 110.99 520.402 110.99ZM520.402 108.74C523.642 108.74 526.252 107.93 528.232 106.31C530.212 104.63 531.652 102.41 532.552 99.65C533.452 96.83 533.902 93.68 533.902 90.2C533.902 86.6 533.452 83.39 532.552 80.57C531.652 77.75 530.212 75.53 528.232 73.91C526.252 72.23 523.642 71.39 520.402 71.39C517.162 71.39 514.552 72.23 512.572 73.91C510.592 75.53 509.152 77.75 508.252 80.57C507.352 83.39 506.902 86.6 506.902 90.2C506.902 93.68 507.352 96.83 508.252 99.65C509.152 102.41 510.592 104.63 512.572 106.31C514.552 107.93 517.162 108.74 520.402 108.74ZM548.285 110.27V108.02L550.085 107.84C552.185 107.6 553.775 107.3 554.855 106.94C555.995 106.52 556.775 105.68 557.195 104.42C557.615 103.1 557.825 100.97 557.825 98.03V58.07C557.825 55.07 557.615 52.94 557.195 51.68C556.775 50.42 555.995 49.61 554.855 49.25C553.775 48.83 552.185 48.5 550.085 48.26L548.285 48.08V45.83L561.605 46.1H566.645L588.065 98.03L611.735 46.1H617.135L629.735 45.83V48.08L627.935 48.26C625.895 48.5 624.305 48.83 623.165 49.25C622.025 49.61 621.245 50.42 620.825 51.68C620.405 52.94 620.195 55.07 620.195 58.07V98.03C620.195 100.97 620.405 103.1 620.825 104.42C621.245 105.74 622.025 106.58 623.165 106.94C624.305 107.3 625.895 107.6 627.935 107.84L629.735 108.02V110.27L616.415 110L603.005 110.27V108.02L604.805 107.84C606.905 107.6 608.495 107.3 609.575 106.94C610.715 106.58 611.495 105.74 611.915 104.42C612.335 103.1 612.545 100.97 612.545 98.03V51.77L585.905 110H584.195L560.975 52.67V100.55C560.975 102.47 561.215 103.91 561.695 104.87C562.175 105.83 562.955 106.52 564.035 106.94C565.175 107.3 566.735 107.6 568.715 107.84L570.515 108.02V110.27L559.085 110L548.285 110.27ZM656.369 110.99C652.529 110.99 649.019 110.06 645.839 108.2C642.719 106.34 640.229 103.85 638.369 100.73C636.569 97.55 635.669 94.04 635.669 90.2C635.669 86.24 636.569 82.67 638.369 79.49C640.229 76.31 642.719 73.79 645.839 71.93C649.019 70.07 652.529 69.14 656.369 69.14C660.269 69.14 663.779 70.07 666.899 71.93C670.019 73.79 672.479 76.31 674.279 79.49C676.139 82.67 677.069 86.24 677.069 90.2C677.069 94.04 676.139 97.55 674.279 100.73C672.479 103.85 670.019 106.34 666.899 108.2C663.779 110.06 660.269 110.99 656.369 110.99ZM656.369 108.74C659.609 108.74 662.219 107.93 664.199 106.31C666.179 104.63 667.619 102.41 668.519 99.65C669.419 96.83 669.869 93.68 669.869 90.2C669.869 86.6 669.419 83.39 668.519 80.57C667.619 77.75 666.179 75.53 664.199 73.91C662.219 72.23 659.609 71.39 656.369 71.39C653.129 71.39 650.519 72.23 648.539 73.91C646.559 75.53 645.119 77.75 644.219 80.57C643.319 83.39 642.869 86.6 642.869 90.2C642.869 93.68 643.319 96.83 644.219 99.65C645.119 102.41 646.559 104.63 648.539 106.31C650.519 107.93 653.129 108.74 656.369 108.74ZM683.622 110.27V108.2L685.062 108.02C686.802 107.78 688.122 107.51 689.022 107.21C689.982 106.85 690.642 106.1 691.002 104.96C691.362 103.76 691.542 101.81 691.542 99.11V80.12C691.542 77.96 691.212 76.37 690.552 75.35C689.952 74.27 689.052 73.58 687.852 73.28C686.652 72.98 685.242 72.83 683.622 72.83V70.76C686.082 70.76 688.452 70.7 690.732 70.58C693.012 70.4 695.382 70.1 697.842 69.68V76.7C699.162 74.66 700.992 72.89 703.332 71.39C705.732 69.89 708.492 69.14 711.612 69.14C714.792 69.14 717.432 69.83 719.532 71.21C721.692 72.53 723.132 74.63 723.852 77.51C725.112 75.35 726.972 73.43 729.432 71.75C731.892 70.01 734.802 69.14 738.162 69.14C742.062 69.14 745.152 70.16 747.432 72.2C749.772 74.24 750.942 77.48 750.942 81.92V99.11C750.942 101.75 751.092 103.67 751.392 104.87C751.752 106.01 752.382 106.76 753.282 107.12C754.242 107.48 755.592 107.78 757.332 108.02L758.772 108.2V110.27L747.792 110L737.622 110.27V108.2L739.062 108.02C740.562 107.84 741.702 107.57 742.482 107.21C743.322 106.85 743.892 106.1 744.192 104.96C744.492 103.76 744.642 101.81 744.642 99.11V80.39C744.642 77.75 743.922 75.68 742.482 74.18C741.042 72.62 739.002 71.84 736.362 71.84C734.202 71.84 732.312 72.32 730.692 73.28C729.072 74.24 727.722 75.44 726.642 76.88C725.622 78.32 724.872 79.73 724.392 81.11C724.392 81.35 724.392 81.62 724.392 81.92V99.11C724.392 101.81 724.542 103.76 724.842 104.96C725.142 106.1 725.682 106.85 726.462 107.21C727.302 107.51 728.472 107.78 729.972 108.02L731.412 108.2V110.27L721.242 110L711.072 110.27V108.2L712.512 108.02C714.012 107.78 715.152 107.51 715.932 107.21C716.772 106.85 717.342 106.1 717.642 104.96C717.942 103.76 718.092 101.81 718.092 99.11V80.39C718.092 77.75 717.372 75.68 715.932 74.18C714.492 72.62 712.452 71.84 709.812 71.84C707.712 71.84 705.852 72.32 704.232 73.28C702.612 74.24 701.262 75.44 700.182 76.88C699.102 78.32 698.322 79.73 697.842 81.11V99.11C697.842 101.81 697.992 103.76 698.292 104.96C698.592 106.1 699.132 106.85 699.912 107.21C700.752 107.51 701.922 107.78 703.422 108.02L704.862 108.2V110.27L694.692 110L683.622 110.27ZM783.524 110.99C779.564 110.99 776.114 110.15 773.174 108.47C770.234 106.73 767.924 104.36 766.244 101.36C764.624 98.3 763.814 94.82 763.814 90.92C763.814 86.72 764.714 83 766.514 79.76C768.314 76.46 770.714 73.88 773.714 72.02C776.774 70.1 780.134 69.14 783.794 69.14C788.414 69.14 792.014 70.61 794.594 73.55C797.234 76.49 798.554 80.36 798.554 85.16C798.554 85.88 798.524 86.48 798.464 86.96C798.404 87.44 798.344 87.77 798.284 87.95H771.104C771.044 88.79 771.014 89.63 771.014 90.47C771.014 93.65 771.524 96.62 772.544 99.38C773.564 102.08 775.094 104.24 777.134 105.86C779.234 107.48 781.784 108.29 784.784 108.29C787.604 108.29 790.094 107.51 792.254 105.95C794.474 104.33 796.184 101.96 797.384 98.84L799.544 99.65C797.024 107.21 791.684 110.99 783.524 110.99ZM783.794 71.39C780.074 71.39 777.164 72.71 775.064 75.35C773.024 77.99 771.764 81.5 771.284 85.88H782.714C785.414 85.88 787.454 85.58 788.834 84.98C790.274 84.32 791.234 83.54 791.714 82.64C792.254 81.68 792.524 80.75 792.524 79.85C792.524 77.21 791.624 75.14 789.824 73.64C788.024 72.14 786.014 71.39 783.794 71.39ZM805.174 110.27V108.2L806.614 108.02C808.354 107.78 809.674 107.51 810.574 107.21C811.534 106.85 812.194 106.1 812.554 104.96C812.914 103.76 813.094 101.81 813.094 99.11V80.12C813.094 77 812.434 75.02 811.114 74.18C809.854 73.28 808.084 72.83 805.804 72.83H805.174V70.76C807.634 70.76 810.004 70.7 812.284 70.58C814.564 70.4 816.934 70.1 819.394 69.68V76.97C820.774 74.93 822.724 73.13 825.244 71.57C827.764 69.95 830.704 69.14 834.064 69.14C838.144 69.14 841.354 70.19 843.694 72.29C846.094 74.33 847.294 77.27 847.294 81.11V99.11C847.294 101.81 847.474 103.76 847.834 104.96C848.194 106.1 848.824 106.85 849.724 107.21C850.684 107.51 852.034 107.78 853.774 108.02L855.214 108.2V110.27L844.144 110L833.074 110.27V108.2L834.514 108.02C836.254 107.78 837.574 107.51 838.474 107.21C839.434 106.85 840.094 106.1 840.454 104.96C840.814 103.76 840.994 101.81 840.994 99.11V81.11C840.994 78.11 840.214 75.83 838.654 74.27C837.094 72.65 834.904 71.84 832.084 71.84C829.924 71.84 827.974 72.35 826.234 73.37C824.494 74.33 823.054 75.53 821.914 76.97C820.774 78.41 819.934 79.79 819.394 81.11V99.11C819.394 101.81 819.574 103.76 819.934 104.96C820.294 106.1 820.924 106.85 821.824 107.21C822.784 107.51 824.134 107.78 825.874 108.02L827.314 108.2V110.27L816.244 110L805.174 110.27ZM874.561 110.99C871.621 110.99 869.221 110.12 867.361 108.38C865.561 106.58 864.661 103.67 864.661 99.65V73.01H858.001V70.76L860.431 70.58C862.891 70.4 864.751 69.41 866.011 67.61C867.331 65.75 868.201 63.17 868.621 59.87H870.961V70.76H882.481V73.01H870.961V100.01C870.961 105.29 872.821 107.93 876.541 107.93C878.101 107.93 879.361 107.42 880.321 106.4C881.281 105.32 882.151 104 882.931 102.44L884.911 103.43C884.551 104.33 884.101 105.17 883.561 105.95C883.081 106.67 882.601 107.3 882.121 107.84C881.101 108.98 879.931 109.79 878.611 110.27C877.351 110.75 876.001 110.99 874.561 110.99ZM904.879 110.99C902.599 110.99 900.649 110.72 899.029 110.18C897.469 109.7 896.239 109.25 895.339 108.83C894.379 108.35 893.779 108.11 893.539 108.11C893.299 108.11 893.089 108.23 892.909 108.47C892.789 108.65 892.639 109.16 892.459 110H890.389L890.749 104.06L891.019 96.41H892.999L893.089 97.94C893.209 99.62 893.749 101.3 894.709 102.98C895.729 104.66 897.109 106.07 898.849 107.21C900.589 108.35 902.599 108.92 904.879 108.92C907.339 108.92 909.319 108.29 910.819 107.03C912.319 105.77 913.069 104.03 913.069 101.81C913.069 99.89 912.289 98.27 910.729 96.95C909.229 95.63 907.129 94.46 904.429 93.44L901.189 92.18C898.069 90.98 895.699 89.48 894.079 87.68C892.519 85.88 891.739 83.57 891.739 80.75C891.739 78.35 892.279 76.31 893.359 74.63C894.499 72.89 895.969 71.54 897.769 70.58C899.629 69.62 901.609 69.14 903.709 69.14C905.209 69.14 906.469 69.32 907.489 69.68C908.569 70.04 909.469 70.4 910.189 70.76C910.789 71.06 911.299 71.21 911.719 71.21C912.319 71.21 912.799 70.58 913.159 69.32L915.139 69.41L914.779 75.26V81.56H912.709C912.289 78.74 911.329 76.31 909.829 74.27C908.329 72.17 906.169 71.12 903.349 71.12C901.369 71.12 899.689 71.75 898.309 73.01C896.989 74.27 896.329 75.86 896.329 77.78C896.329 79.64 897.019 81.2 898.399 82.46C899.839 83.66 901.789 84.74 904.249 85.7L907.759 87.05C911.419 88.43 913.939 90.11 915.319 92.09C916.759 94.01 917.479 96.32 917.479 99.02C917.479 102.2 916.399 104.99 914.239 107.39C912.079 109.79 908.959 110.99 904.879 110.99Z" fill="#0A1628"/>
<path opacity="0.5" d="M269 134H899" stroke="#3D52A0" stroke-width="0.8"/>
<path d="M529.49 174V154.56H522.08V152.4H539.36V154.56H531.95V174H529.49ZM543.033 174V152.4H545.493V174H543.033ZM544.293 174V171.84H557.493V174H544.293ZM544.293 163.83V161.67H556.413V163.83H544.293ZM544.293 154.56V152.4H557.253V154.56H544.293ZM570.084 174.3C568.604 174.3 567.234 174.03 565.974 173.49C564.734 172.93 563.654 172.16 562.734 171.18C561.814 170.18 561.104 169.01 560.604 167.67C560.104 166.31 559.854 164.82 559.854 163.2C559.854 161.58 560.104 160.1 560.604 158.76C561.104 157.4 561.804 156.23 562.704 155.25C563.624 154.25 564.704 153.48 565.944 152.94C567.204 152.38 568.574 152.1 570.054 152.1C571.674 152.1 573.124 152.43 574.404 153.09C575.704 153.75 576.764 154.68 577.584 155.88C578.424 157.08 578.944 158.48 579.144 160.08H576.684C576.444 158.3 575.734 156.9 574.554 155.88C573.394 154.84 571.904 154.32 570.084 154.32C568.544 154.32 567.194 154.7 566.034 155.46C564.874 156.2 563.974 157.24 563.334 158.58C562.694 159.9 562.374 161.44 562.374 163.2C562.374 164.96 562.694 166.51 563.334 167.85C563.974 169.17 564.874 170.21 566.034 170.97C567.194 171.71 568.534 172.08 570.054 172.08C571.914 172.08 573.434 171.56 574.614 170.52C575.814 169.48 576.524 168.08 576.744 166.32H579.204C579.004 167.92 578.484 169.32 577.644 170.52C576.824 171.72 575.764 172.65 574.464 173.31C573.184 173.97 571.724 174.3 570.084 174.3ZM583.17 174V152.4H585.63V174H583.17ZM597.63 174V152.4H600.09V174H597.63ZM584.43 161.67H598.71V163.83H584.43V161.67ZM605.26 174V152.4H607.81L620.2 170.58L619.84 170.64V152.4H622.18V174H619.63L607.24 155.82L607.6 155.76V174H605.26ZM636.56 174.3C635.06 174.3 633.68 174.03 632.42 173.49C631.18 172.93 630.1 172.15 629.18 171.15C628.26 170.13 627.54 168.94 627.02 167.58C626.52 166.22 626.27 164.73 626.27 163.11C626.27 160.97 626.71 159.07 627.59 157.41C628.47 155.75 629.68 154.45 631.22 153.51C632.78 152.57 634.55 152.1 636.53 152.1C638.55 152.1 640.33 152.57 641.87 153.51C643.43 154.45 644.65 155.75 645.53 157.41C646.41 159.07 646.85 160.98 646.85 163.14C646.85 164.76 646.59 166.25 646.07 167.61C645.57 168.97 644.86 170.15 643.94 171.15C643.02 172.15 641.93 172.93 640.67 173.49C639.41 174.03 638.04 174.3 636.56 174.3ZM636.53 172.08C638.07 172.08 639.42 171.7 640.58 170.94C641.76 170.16 642.68 169.09 643.34 167.73C644 166.37 644.33 164.82 644.33 163.08C644.33 161.36 644 159.84 643.34 158.52C642.7 157.2 641.79 156.17 640.61 155.43C639.45 154.69 638.09 154.32 636.53 154.32C634.97 154.32 633.61 154.69 632.45 155.43C631.29 156.17 630.39 157.2 629.75 158.52C629.11 159.82 628.79 161.34 628.79 163.08C628.79 164.84 629.11 166.4 629.75 167.76C630.41 169.1 631.32 170.16 632.48 170.94C633.64 171.7 634.99 172.08 636.53 172.08ZM650.934 174V152.4H653.394V174H650.934ZM652.194 174V171.84H664.494V174H652.194ZM675.671 174.3C674.171 174.3 672.791 174.03 671.531 173.49C670.291 172.93 669.211 172.15 668.291 171.15C667.371 170.13 666.651 168.94 666.131 167.58C665.631 166.22 665.381 164.73 665.381 163.11C665.381 160.97 665.821 159.07 666.701 157.41C667.581 155.75 668.791 154.45 670.331 153.51C671.891 152.57 673.661 152.1 675.641 152.1C677.661 152.1 679.441 152.57 680.981 153.51C682.541 154.45 683.761 155.75 684.641 157.41C685.521 159.07 685.961 160.98 685.961 163.14C685.961 164.76 685.701 166.25 685.181 167.61C684.681 168.97 683.971 170.15 683.051 171.15C682.131 172.15 681.041 172.93 679.781 173.49C678.521 174.03 677.151 174.3 675.671 174.3ZM675.641 172.08C677.181 172.08 678.531 171.7 679.691 170.94C680.871 170.16 681.791 169.09 682.451 167.73C683.111 166.37 683.441 164.82 683.441 163.08C683.441 161.36 683.111 159.84 682.451 158.52C681.811 157.2 680.901 156.17 679.721 155.43C678.561 154.69 677.201 154.32 675.641 154.32C674.081 154.32 672.721 154.69 671.561 155.43C670.401 156.17 669.501 157.2 668.861 158.52C668.221 159.82 667.901 161.34 667.901 163.08C667.901 164.84 668.221 166.4 668.861 167.76C669.521 169.1 670.431 170.16 671.591 170.94C672.751 171.7 674.101 172.08 675.641 172.08ZM699.911 174.3C697.711 174.3 695.801 173.85 694.181 172.95C692.561 172.05 691.311 170.79 690.431 169.17C689.551 167.53 689.111 165.6 689.111 163.38C689.111 161.16 689.541 159.21 690.401 157.53C691.281 155.83 692.491 154.5 694.031 153.54C695.591 152.58 697.381 152.1 699.401 152.1C700.981 152.1 702.411 152.4 703.691 153C704.991 153.6 706.051 154.43 706.871 155.49C707.711 156.55 708.221 157.78 708.401 159.18H705.941C705.741 157.7 705.051 156.52 703.871 155.64C702.711 154.76 701.251 154.32 699.491 154.32C697.911 154.32 696.531 154.7 695.351 155.46C694.171 156.2 693.251 157.24 692.591 158.58C691.951 159.92 691.631 161.5 691.631 163.32C691.631 165.14 691.961 166.71 692.621 168.03C693.301 169.33 694.271 170.33 695.531 171.03C696.811 171.73 698.341 172.08 700.121 172.08C701.341 172.08 702.431 171.91 703.391 171.57C704.351 171.21 705.221 170.66 706.001 169.92L708.461 170.82C707.361 171.98 706.091 172.85 704.651 173.43C703.231 174.01 701.651 174.3 699.911 174.3ZM706.001 170.82V163.83L706.931 164.76H700.091V162.6H708.461V170.82H706.001ZM717.644 174V164.22L709.454 152.4H712.454L719.564 162.78H718.424L725.534 152.4H728.294L720.104 164.22V174H717.644ZM744.914 174.27C742.394 174.27 740.384 173.65 738.884 172.41C737.404 171.17 736.534 169.4 736.274 167.1H738.674C738.894 168.76 739.524 170.01 740.564 170.85C741.604 171.69 743.044 172.11 744.884 172.11C746.444 172.11 747.614 171.82 748.394 171.24C749.194 170.64 749.594 169.77 749.594 168.63C749.594 167.65 749.324 166.87 748.784 166.29C748.244 165.71 747.404 165.23 746.264 164.85L742.634 163.59C740.794 162.95 739.434 162.18 738.554 161.28C737.674 160.36 737.234 159.2 737.234 157.8C737.234 156.64 737.524 155.64 738.104 154.8C738.684 153.94 739.504 153.27 740.564 152.79C741.624 152.31 742.854 152.07 744.254 152.07C746.414 152.07 748.144 152.64 749.444 153.78C750.744 154.9 751.494 156.5 751.694 158.58H749.294C749.034 157.08 748.494 155.98 747.674 155.28C746.874 154.58 745.714 154.23 744.194 154.23C742.754 154.23 741.634 154.52 740.834 155.1C740.034 155.68 739.634 156.5 739.634 157.56C739.634 158.46 739.914 159.18 740.474 159.72C741.034 160.26 741.904 160.73 743.084 161.13L746.954 162.48C748.634 163.06 749.894 163.85 750.734 164.85C751.574 165.83 751.994 167.08 751.994 168.6C751.994 170.4 751.374 171.8 750.134 172.8C748.914 173.78 747.174 174.27 744.914 174.27ZM765.056 174.3C763.556 174.3 762.176 174.03 760.916 173.49C759.676 172.93 758.596 172.15 757.676 171.15C756.756 170.13 756.036 168.94 755.516 167.58C755.016 166.22 754.766 164.73 754.766 163.11C754.766 160.97 755.206 159.07 756.086 157.41C756.966 155.75 758.176 154.45 759.716 153.51C761.276 152.57 763.046 152.1 765.026 152.1C767.046 152.1 768.826 152.57 770.366 153.51C771.926 154.45 773.146 155.75 774.026 157.41C774.906 159.07 775.346 160.98 775.346 163.14C775.346 164.76 775.086 166.25 774.566 167.61C774.066 168.97 773.356 170.15 772.436 171.15C771.516 172.15 770.426 172.93 769.166 173.49C767.906 174.03 766.536 174.3 765.056 174.3ZM765.026 172.08C766.566 172.08 767.916 171.7 769.076 170.94C770.256 170.16 771.176 169.09 771.836 167.73C772.496 166.37 772.826 164.82 772.826 163.08C772.826 161.36 772.496 159.84 771.836 158.52C771.196 157.2 770.286 156.17 769.106 155.43C767.946 154.69 766.586 154.32 765.026 154.32C763.466 154.32 762.106 154.69 760.946 155.43C759.786 156.17 758.886 157.2 758.246 158.52C757.606 159.82 757.286 161.34 757.286 163.08C757.286 164.84 757.606 166.4 758.246 167.76C758.906 169.1 759.816 170.16 760.976 170.94C762.136 171.7 763.486 172.08 765.026 172.08ZM779.43 174V152.4H781.89V174H779.43ZM780.69 174V171.84H792.99V174H780.69ZM803.086 174.3C800.486 174.3 798.456 173.51 796.996 171.93C795.556 170.33 794.836 168.1 794.836 165.24V152.4H797.296V165.36C797.296 167.52 797.796 169.18 798.796 170.34C799.796 171.5 801.226 172.08 803.086 172.08C804.986 172.08 806.436 171.51 807.436 170.37C808.436 169.21 808.936 167.54 808.936 165.36V152.4H811.396V165.27C811.396 168.11 810.666 170.33 809.206 171.93C807.746 173.51 805.706 174.3 803.086 174.3ZM821.785 174V154.56H814.375V152.4H831.655V154.56H824.245V174H821.785ZM835.328 174V152.4H837.788V174H835.328ZM852.155 174.3C850.655 174.3 849.275 174.03 848.015 173.49C846.775 172.93 845.695 172.15 844.775 171.15C843.855 170.13 843.135 168.94 842.615 167.58C842.115 166.22 841.865 164.73 841.865 163.11C841.865 160.97 842.305 159.07 843.185 157.41C844.065 155.75 845.275 154.45 846.815 153.51C848.375 152.57 850.145 152.1 852.125 152.1C854.145 152.1 855.925 152.57 857.465 153.51C859.025 154.45 860.245 155.75 861.125 157.41C862.005 159.07 862.445 160.98 862.445 163.14C862.445 164.76 862.185 166.25 861.665 167.61C861.165 168.97 860.455 170.15 859.535 171.15C858.615 172.15 857.525 172.93 856.265 173.49C855.005 174.03 853.635 174.3 852.155 174.3ZM852.125 172.08C853.665 172.08 855.015 171.7 856.175 170.94C857.355 170.16 858.275 169.09 858.935 167.73C859.595 166.37 859.925 164.82 859.925 163.08C859.925 161.36 859.595 159.84 858.935 158.52C858.295 157.2 857.385 156.17 856.205 155.43C855.045 154.69 853.685 154.32 852.125 154.32C850.565 154.32 849.205 154.69 848.045 155.43C846.885 156.17 845.985 157.2 845.345 158.52C844.705 159.82 844.385 161.34 844.385 163.08C844.385 164.84 844.705 166.4 845.345 167.76C846.005 169.1 846.915 170.16 848.075 170.94C849.235 171.7 850.585 172.08 852.125 172.08ZM866.529 174V152.4H869.079L881.469 170.58L881.109 170.64V152.4H883.449V174H880.899L868.509 155.82L868.869 155.76V174H866.529ZM895.939 174.27C893.419 174.27 891.409 173.65 889.909 172.41C888.429 171.17 887.559 169.4 887.299 167.1H889.699C889.919 168.76 890.549 170.01 891.589 170.85C892.629 171.69 894.069 172.11 895.909 172.11C897.469 172.11 898.639 171.82 899.419 171.24C900.219 170.64 900.619 169.77 900.619 168.63C900.619 167.65 900.349 166.87 899.809 166.29C899.269 165.71 898.429 165.23 897.289 164.85L893.659 163.59C891.819 162.95 890.459 162.18 889.579 161.28C888.699 160.36 888.259 159.2 888.259 157.8C888.259 156.64 888.549 155.64 889.129 154.8C889.709 153.94 890.529 153.27 891.589 152.79C892.649 152.31 893.879 152.07 895.279 152.07C897.439 152.07 899.169 152.64 900.469 153.78C901.769 154.9 902.519 156.5 902.719 158.58H900.319C900.059 157.08 899.519 155.98 898.699 155.28C897.899 154.58 896.739 154.23 895.219 154.23C893.779 154.23 892.659 154.52 891.859 155.1C891.059 155.68 890.659 156.5 890.659 157.56C890.659 158.46 890.939 159.18 891.499 159.72C892.059 160.26 892.929 160.73 894.109 161.13L897.979 162.48C899.659 163.06 900.919 163.85 901.759 164.85C902.599 165.83 903.019 167.08 903.019 168.6C903.019 170.4 902.399 171.8 901.159 172.8C899.939 173.78 898.199 174.27 895.939 174.27Z" fill="#3D52A0"/>
</g>
<defs>
<clipPath id="clip0_0_1">
<rect width="930" height="243" fill="white"/>
</clipPath>
</defs>
</svg>
