<svg width="965" height="173" viewBox="0 0 965 173" fill="none" xmlns="http://www.w3.org/2000/svg">
<path d="M76.8847 0.192049C75.6785 0.31284 74.1576 0.502653 73.4759 0.623444C69.7873 1.2274 68.9832 1.36544 67.7945 1.58977C67.0777 1.74507 65.417 2.15922 64.1234 2.52159C62.8298 2.88396 61.2914 3.2981 60.6971 3.43615C58.1448 4.07461 50.8376 6.99084 47.4288 8.73367C45.0164 9.95883 44.422 10.3039 41.3104 12.1503C29.2483 19.3805 19.0218 29.9238 11.4874 42.9174C8.91763 47.3694 5.28153 55.238 4.52984 57.9989C4.42495 58.3786 4.04037 59.621 3.67326 60.7599C3.28867 61.8988 2.86912 63.3655 2.71179 64.0385C1.9601 67.2653 1.36574 70.0262 1.19092 71.1133C1.06856 71.7691 0.876261 72.9079 0.753893 73.6154C-0.260019 79.0855 -0.242538 92.8729 0.753893 99.1195C1.24337 102.191 1.36574 102.795 2.18735 106.574C3.48097 112.648 5.63116 118.549 8.98756 125.348C9.33718 126.021 9.72177 126.591 9.84414 126.591C10.0015 126.591 10.1238 126.28 10.1938 125.762C10.7357 121.949 12.1866 116.513 13.5502 113.217C13.9872 112.165 14.1096 111.889 15.7004 108.558L16.5919 106.66L16.1374 105.107C15.7178 103.64 15.1235 100.724 14.669 98.0324C14.5641 97.3594 14.3543 96.1687 14.2144 95.3577C14.0746 94.5467 13.8823 92.1827 13.7774 90.0775C13.4977 84.7799 13.8124 79.5514 14.6515 75.0822C14.7389 74.599 14.9661 73.2876 15.1759 72.1487C15.5605 69.9917 17.5184 62.7788 17.8156 62.4854C18.0603 62.2439 18.1477 62.3647 20.1756 65.9366C22.3957 69.8364 24.7556 73.3221 28.5316 78.2745C30.944 81.4323 32.832 83.7618 34.0207 85.0215C35.2269 86.3157 35.2269 86.6435 34.0207 87.9377C32.9543 89.0594 32.797 89.2492 28.6015 94.9263C26.1891 98.1877 22.8677 103.364 21.2069 106.488C17.6932 113.045 16.2423 116.72 14.8263 122.622C14.5466 123.813 14.127 127.419 14.127 128.661C14.1445 132.855 15.8227 136.841 18.6372 139.36C20.7699 141.258 23.3921 142.414 27.5876 143.346C28.9511 143.639 34.3179 143.743 36.6778 143.519C42.1495 143.001 42.7089 142.897 49.5266 141.086C52.8305 140.223 56.8512 138.929 58.7042 138.152C59.5957 137.772 60.3999 137.462 60.4873 137.462C60.6971 137.462 65.6967 135.408 67.6196 134.546C71.2907 132.889 73.0738 132.026 74.787 131.077C75.8009 130.525 77.2168 129.766 77.9336 129.386C80.1187 128.247 82.1815 127.091 82.9507 126.573C83.3528 126.297 83.8422 126.073 84.0345 126.073C84.3142 126.073 89.1216 128.541 89.7334 129.007C90.1879 129.352 98.3517 133.389 99.6278 133.907C100.432 134.235 102.075 134.908 103.281 135.391C108.631 137.565 113.613 139.291 117.966 140.482C119.259 140.827 121.147 141.344 122.161 141.62C125.85 142.621 128.28 143.018 133.699 143.536C136.286 143.76 141.356 143.622 143.488 143.243C151.547 141.81 156.494 137.186 157.159 130.421C157.805 124.054 155.638 115.668 151.407 108.127C151.11 107.609 150.568 106.626 150.219 105.97C148.121 102.174 143.261 95.0126 142.772 95.0126C142.544 95.0126 142.422 95.3577 142.177 96.5139C141.67 99.085 140.866 102.26 140.237 104.193C139.537 106.384 139.503 106.902 140.062 107.558C140.726 108.351 141.478 109.784 142.667 112.527C144.415 116.548 145.586 120.879 145.586 123.226C145.586 124.589 145.027 126.85 144.362 128.161C143.733 129.386 142.02 131.146 140.779 131.836C137.929 133.407 132.702 134.131 128.629 133.528C119.609 132.164 110.152 129.058 99.7851 124.037C95.2225 121.828 93.3171 120.775 93.3171 120.448C93.3171 120.223 94.1212 119.55 96.0441 118.222C99.2782 115.996 105.851 110.991 107.669 109.421C108.106 109.042 109.085 108.231 109.854 107.609C116.497 102.26 128.07 90.9575 133.839 84.176C135.569 82.1225 140.936 75.3583 141.985 73.8743C145.778 68.5767 148.942 63.4345 151.302 58.7755C153.61 54.2544 155.341 49.6644 156.459 45.1434C156.984 43.0899 157.001 42.8139 157.019 39.1901C157.036 35.0142 156.949 34.4621 155.952 32.0462C154.764 29.1818 153.365 27.4389 151.023 25.9204C147.579 23.6944 143.82 22.7281 138.506 22.7109C133.419 22.7109 128.699 23.5564 120.413 25.9722C117.686 26.766 115.938 27.4044 109.907 29.8375C105.851 31.4768 101.184 33.7373 94.9253 37.1194C92.8975 38.2238 89.2614 40.3635 86.4994 42.1064C85.1009 42.9864 83.4576 43.9527 82.8283 44.2461C81.7969 44.7292 80.5033 45.592 76.3428 48.56C75.6261 49.0604 74.5422 49.9405 73.9129 50.4927C73.2836 51.0621 72.1473 51.9594 71.3781 52.4943C67.5847 55.169 59.1063 62.1576 53.8619 66.9202C50.5929 69.9054 44.3696 76.2383 44.3696 76.6007C44.3696 77.1011 49.9985 83.1061 50.4705 83.1061C50.5929 83.1061 52.1662 81.6566 53.9668 79.862C58.4245 75.4445 67.4273 67.3516 70.0495 65.4189C70.3118 65.2291 71.7277 64.1075 73.2136 62.9168C80.381 57.1879 86.3945 52.9257 94.3659 47.9561C100.817 43.9182 110.029 39.2074 115.536 37.1194C116.445 36.7743 117.529 36.3602 117.966 36.1876C118.403 35.9978 119.469 35.6527 120.326 35.3939C121.2 35.1523 122.616 34.7209 123.472 34.4621C126.724 33.4612 128.839 33.1161 132.667 32.9435C134.992 32.84 137.387 33.1161 138.961 33.6683C140.149 34.0824 142.125 35.3766 143.034 36.3429C143.488 36.8261 144.1 37.7234 144.38 38.3273C144.957 39.587 145.586 42.1926 145.586 43.297C145.586 45.0916 144.257 50.4754 143.226 52.9257C142.369 54.9447 139.677 60.1214 138.401 62.1748C137.719 63.2965 136.408 65.2981 135.482 66.6268C134.555 67.9555 133.559 69.3878 133.262 69.8192C132.965 70.2506 132.003 71.5275 131.112 72.6664C129.608 74.599 128.594 75.8069 124.189 80.9837C121.916 83.641 112.424 92.9937 108.526 96.4103C100.939 103.071 98.1943 105.245 88.1601 112.527C85.8701 114.201 84.2967 115.202 83.9646 115.202C83.5276 115.202 79.3321 112.493 74.9618 109.369C70.6963 106.315 68.8258 104.866 64.2982 101.156C58.914 96.7382 56.4491 94.5294 51.2747 89.508C40.0867 78.6541 32.2901 68.7666 27.7274 59.6382C25.9444 56.0663 23.7417 50.7688 23.7417 50.0268C23.7417 49.8715 24.0389 49.2675 24.406 48.6981C24.7731 48.1114 25.385 47.1451 25.7521 46.5238C26.6961 44.9191 29.3532 41.1918 30.8566 39.3282C36.3282 32.5467 44.2123 25.9204 51.4495 22.0206C59.4035 17.7239 66.6582 15.2909 75.5736 13.9277C76.8847 13.7206 81.8319 13.2374 83.2654 13.1684L84.1394 13.1339V6.5767V0.0194911L81.6046 0.00223536C80.2061 -0.0150204 78.0909 0.0712585 76.8847 0.192049ZM45.2262 96.7554C49.0371 100.448 54.7185 105.521 56.9736 107.264C57.533 107.696 59.5083 109.249 61.3614 110.733C65.0499 113.666 67.4973 115.478 71.1159 117.963C74.4024 120.206 74.6121 120.361 74.6121 120.603C74.6121 120.914 72.4969 122.156 68.0567 124.434C60.4523 128.334 52.0613 131.388 44.457 133.027C38.828 134.235 34.5277 133.89 30.8741 131.94C29.6154 131.267 27.6925 129.283 27.1506 128.092C26.6611 127.039 26.0143 124.296 26.0143 123.243C26.0143 122.881 26.1367 121.897 26.294 121.086C27.4128 115.185 30.4021 108.662 35.2444 101.656C38.0064 97.67 41.3453 93.4423 41.7299 93.4596C41.7998 93.4596 43.3557 94.9436 45.2262 96.7554Z" fill="#0A1628"/>
<path d="M39.1777 102.674C36.6953 106.212 32.4824 113.787 32.4824 114.753C32.4824 116.134 37.1848 123.433 40.1566 126.677C40.5937 127.16 41.2929 127.919 41.7125 128.385C42.4641 129.213 42.4641 129.213 43.3732 129.11C46.4499 128.713 56.117 125.849 56.2219 125.314C56.2568 125.124 55.9946 124.762 55.5401 124.382C52.3061 121.655 48.7574 117.756 46.5548 114.512C44.2822 111.181 41.7125 105.987 40.6811 102.605C40.3314 101.518 39.9993 101.535 39.1777 102.674Z" fill="#0A1628"/>
<path d="M79.7691 24.6952C72.2172 25.42 65.9589 27.1801 59.1412 30.4759C52.7781 33.5475 45.7331 38.983 40.8908 44.5394C37.7966 48.0768 34.5976 52.943 32.29 57.6193L31.6957 58.7927L32.3075 59.9488C33.9857 63.1584 35.8213 66.0228 38.1463 69.0771C40.1916 71.7863 40.3314 71.8553 40.6985 70.3023C41.6075 66.4715 44.8591 59.7072 47.6561 55.7729C50.3132 52.0284 55.8373 46.6964 59.6657 44.1598C63.4067 41.6922 67.6896 39.7078 72.0773 38.4136C76.5875 37.0849 80.4334 36.5154 84.9435 36.5154C88.0202 36.5154 88.0202 36.5154 89.5761 35.6354C90.4326 35.1522 91.3242 34.6173 91.5689 34.462C92.3031 33.9616 97.4251 31.2869 100.397 29.8202C101.97 29.0609 103.211 28.3535 103.246 28.1982C103.351 27.6977 98.474 26.231 93.9289 25.4027C93.0723 25.2302 91.9535 25.0403 91.464 24.9368C90.3802 24.7297 85.5554 24.4364 83.5276 24.4709C82.7059 24.4709 81.0277 24.5744 79.7691 24.6952Z" fill="#0A1628"/>
<path d="M81.4298 74.5644C78.7901 75.2029 76.3952 76.5833 74.9268 78.3262C73.7555 79.7239 72.3745 82.5538 72.1298 84.0896C71.8676 85.7634 72.0424 88.835 72.4794 90.0429C73.1437 91.8547 73.8779 93.2007 74.9093 94.4086C77.4091 97.3593 81.4823 98.9296 85.4855 98.4982C88.4223 98.1876 91.0795 96.9797 93.0898 95.047C94.1037 94.0807 95.3274 91.941 95.8868 90.1809C96.3064 88.8867 96.3588 88.4381 96.3588 86.2984C96.3588 84.2794 96.3064 83.6755 95.9742 82.6574C95.5547 81.3114 94.1212 78.8439 93.2646 77.9638C91.7787 76.428 89.4712 75.0993 87.3734 74.5644C86.1148 74.2366 82.7584 74.2366 81.4298 74.5644Z" fill="#0A1628"/>
<path d="M25.752 81.5531C25.5248 81.9327 25.4549 84.1242 25.5772 87.6444C25.6821 90.5606 25.752 91.3889 25.9443 91.4579C26.1017 91.5097 26.5911 91.0265 27.2729 90.1637C27.8847 89.3872 28.7413 88.3001 29.2133 87.7134C29.6678 87.1267 30.0349 86.5573 30.0349 86.4365C30.0349 86.3157 29.5804 85.6945 29.021 85.056C28.4791 84.4003 27.5701 83.3132 27.0107 82.6229C26.4513 81.95 25.9618 81.3805 25.9268 81.3805C25.8919 81.3805 25.822 81.4495 25.752 81.5531Z" fill="#0A1628"/>
<path d="M73.7381 135.961C69.6649 138.031 64.9625 140.119 61.8333 141.258C60.2076 141.845 59.9454 142.035 60.2076 142.293C60.5747 142.656 65.6268 144.726 67.9867 145.486C70.0845 146.141 73.2136 146.849 76.8847 147.47C79.3146 147.884 84.017 148.057 87.4958 147.85C89.4012 147.746 91.3941 147.574 91.9185 147.487C92.443 147.401 93.6667 147.194 94.6281 147.039C98.7887 146.331 101.673 145.486 106.008 143.657C108.805 142.483 109.225 142.242 108.945 141.948C108.788 141.793 106.323 140.792 102.757 139.463C101.813 139.101 96.9531 136.927 94.8379 135.909C92.7576 134.925 92.9499 134.942 89.9082 135.374C86.6742 135.822 83.6324 135.961 81.255 135.736C79.9614 135.633 78.423 135.46 77.8461 135.357C75.5211 134.994 75.696 134.977 73.7381 135.961Z" fill="#0A1628"/>
<path d="M43.6354 146.538C43.478 146.694 40.0517 147.194 36.2233 147.625C33.1291 147.988 30 147.815 25.4549 147.021C24.2137 146.814 24.5983 147.436 27.1156 149.765C30.5069 152.923 33.3914 155.201 37.9889 158.376C39.2476 159.239 43.4081 161.792 43.5829 161.792C43.6179 161.792 44.2122 162.12 44.929 162.534C49.1594 165.002 55.645 167.728 61.0642 169.316C64.438 170.3 68.8783 171.404 70.2768 171.628C75.8358 172.457 76.0631 172.491 80.1012 172.664C82.3913 172.784 83.9996 172.784 84.087 172.698C84.1918 172.595 84.2618 169.678 84.2618 166.003V159.463L81.8319 159.342C78.4056 159.17 74.3674 158.617 70.4166 157.772C68.8258 157.427 63.4766 155.891 61.5886 155.235C59.9803 154.666 54.736 152.526 54.4213 152.302C54.3339 152.233 53.4948 151.801 52.5858 151.353C50.6803 150.404 48.3378 149.04 45.9604 147.505C44.457 146.521 43.8801 146.279 43.6354 146.538Z" fill="#0A1628"/>
<path d="M120.588 39.3453C118.84 39.9665 113.858 42.0544 110.851 43.4349C110.047 43.7972 109.4 44.1941 109.4 44.3149C109.4 44.453 109.854 44.8671 110.414 45.264C112.477 46.7135 116.095 50.0611 118.175 52.4597C121.2 55.9453 123.577 59.6036 125.448 63.6069C126.514 65.9192 126.741 66.4714 127.44 68.5766C127.633 69.1805 127.912 69.7154 128.07 69.7845C128.384 69.9053 129.101 69.1287 130.325 67.3514C130.779 66.6784 131.426 65.8156 131.741 65.4533C132.056 65.0736 132.755 64.021 133.297 63.1065C133.839 62.1919 134.503 61.053 134.8 60.5871C135.901 58.7925 136.321 57.9815 136.321 57.6019C136.321 57.0324 134.94 54.4441 132.772 50.9239C131.321 48.5944 127.878 44.2286 125.762 42.0544C122.528 38.7413 122.423 38.6723 120.588 39.3453Z" fill="#0A1628"/>
<path d="M76.1854 41.1745C72.1822 42.089 65.5219 44.7637 65.5219 45.4366C65.5393 45.661 66.5358 46.2304 69.3328 47.5764C71.6578 48.698 73.3709 49.6298 73.7031 49.9749L74.2625 50.5271L74.8394 50.0612C75.4162 49.5953 77.8636 47.8179 79.3845 46.7653C81.5521 45.2296 81.9193 45.0052 82.2514 44.9017C82.4437 44.8327 82.7409 44.6429 82.8982 44.4703C83.2478 44.0907 83.3527 44.1597 79.9264 42.3133C77.6713 41.1054 77.1644 40.9501 76.1854 41.1745Z" fill="#0A1628"/>
<path d="M95.0127 52.2182C94.2436 52.6323 90.8347 54.8411 89.1215 56.049C88.3699 56.5839 87.793 57.1188 87.758 57.3259C87.7405 57.5502 87.9678 57.8091 88.5447 58.1714C90.9046 59.6727 98.6313 65.1945 100.589 66.7993C101.166 67.2652 102.617 68.4386 103.806 69.3877C104.995 70.3368 106.585 71.6482 107.372 72.3039C109.207 73.8569 116.113 80.1381 116.969 81.0354C117.336 81.415 117.791 81.7256 117.966 81.7256C118.158 81.7256 118.997 80.9663 119.993 79.862C120.937 78.8439 121.969 77.7395 122.266 77.4116C123.245 76.3763 124.084 75.2029 124.084 74.9096C124.084 74.4954 122.109 72.511 118.158 68.9736C113.386 64.7114 113.158 64.5043 109.854 61.8987C106.638 59.3276 105.956 58.8272 101.149 55.3587C99.5928 54.2544 96.3063 52.1319 95.9218 51.9939C95.7469 51.9421 95.3449 52.0456 95.0127 52.2182Z" fill="#0A1628"/>
<path d="M142.142 80.069C141.548 81.1216 135.342 88.3345 132.143 91.7167C130.22 93.7528 129.696 94.4776 129.678 95.1678C129.678 95.3921 129.573 96.0134 129.433 96.5483C129.311 97.0832 129.101 97.9805 128.979 98.55C128.577 100.431 128.087 102.329 127.808 103.123C125.115 110.646 121.287 116.565 115.518 122.173C112.407 125.193 112.284 125.434 113.508 125.831C117.092 127.005 119.172 127.643 120.5 127.954C121.951 128.316 122.581 128.471 124.801 129.006C126.496 129.438 126.479 129.455 130.657 123.985C131.636 122.708 132.737 121.172 133.122 120.551C134.957 117.583 136.146 115.581 136.146 115.443C136.146 115.374 136.601 114.339 137.16 113.148C137.737 111.958 138.454 110.249 138.786 109.352C139.17 108.282 139.485 107.696 139.712 107.627C139.974 107.523 140.044 107.299 140.079 106.47C140.114 105.918 140.324 104.9 140.569 104.244C141.146 102.691 141.95 99.6026 142.457 97.1177C142.667 96.0479 142.911 95.1333 142.981 95.0815C143.069 95.047 143.034 94.8227 142.946 94.5984C142.806 94.3223 142.806 93.7528 142.964 92.6657C143.401 89.2491 143.348 81.3459 142.859 80.1035C142.719 79.7584 142.334 79.7411 142.142 80.069Z" fill="#0A1628"/>
<path d="M192.871 122.18V119.68L195.071 119.48C197.805 119.213 199.871 118.88 201.271 118.48C202.738 118.013 203.738 117.08 204.271 115.68C204.871 114.213 205.171 111.846 205.171 108.58V53.5795H191.071C188.005 53.5795 185.571 54.1795 183.771 55.3795C182.038 56.5128 180.505 58.3795 179.171 60.9795C177.905 63.5795 176.405 67.0462 174.671 71.3795L172.571 70.8795L175.071 58.5795L176.171 50.5795L204.671 50.8795H214.171L242.771 50.5795L243.871 58.5795L246.371 70.8795L244.171 71.4795C242.638 67.6128 241.205 64.3462 239.871 61.6795C238.605 59.0128 237.105 57.0128 235.371 55.6795C233.638 54.2795 231.338 53.5795 228.471 53.5795H213.671V108.58C213.671 111.846 213.938 114.213 214.471 115.68C215.071 117.08 216.105 118.013 217.571 118.48C219.038 118.88 221.105 119.213 223.771 119.48L225.971 119.68V122.18L209.671 121.88L192.871 122.18ZM268.202 122.98C263.802 122.98 259.969 122.046 256.702 120.18C253.436 118.246 250.869 115.613 249.002 112.28C247.202 108.88 246.302 105.013 246.302 100.68C246.302 96.0128 247.302 91.8795 249.302 88.2795C251.302 84.6128 253.969 81.7462 257.302 79.6795C260.702 77.5462 264.436 76.4795 268.502 76.4795C273.636 76.4795 277.636 78.1128 280.502 81.3795C283.436 84.6462 284.902 88.9462 284.902 94.2795C284.902 95.0795 284.869 95.7462 284.802 96.2795C284.736 96.8128 284.669 97.1795 284.602 97.3795H254.402C254.336 98.3128 254.302 99.2462 254.302 100.18C254.302 103.713 254.869 107.013 256.002 110.08C257.136 113.08 258.836 115.48 261.102 117.28C263.436 119.08 266.269 119.98 269.602 119.98C272.736 119.98 275.502 119.113 277.902 117.38C280.369 115.58 282.269 112.946 283.602 109.48L286.002 110.38C283.202 118.78 277.269 122.98 268.202 122.98ZM268.502 78.9795C264.369 78.9795 261.136 80.4462 258.802 83.3795C256.536 86.3128 255.136 90.2128 254.602 95.0795H267.302C270.302 95.0795 272.569 94.7462 274.102 94.0795C275.702 93.3462 276.769 92.4795 277.302 91.4795C277.902 90.4128 278.202 89.3795 278.202 88.3795C278.202 85.4462 277.202 83.1462 275.202 81.4795C273.202 79.8128 270.969 78.9795 268.502 78.9795ZM316.059 122.98C311.592 122.98 307.692 122.013 304.359 120.08C301.025 118.146 298.459 115.513 296.659 112.18C294.859 108.846 293.959 105.046 293.959 100.78C293.959 96.1128 294.992 91.9462 297.059 88.2795C299.125 84.6128 301.925 81.7462 305.459 79.6795C308.992 77.5462 312.992 76.4795 317.459 76.4795C319.592 76.4795 321.792 76.8128 324.059 77.4795C326.325 78.1462 328.225 79.1462 329.759 80.4795C331.359 81.8128 332.159 83.4462 332.159 85.3795C332.159 86.8462 331.692 88.0795 330.759 89.0795C329.825 90.0128 328.692 90.4795 327.359 90.4795C325.625 90.4795 324.325 89.9795 323.459 88.9795C322.592 87.9795 322.159 86.9795 322.159 85.9795C322.159 85.4462 322.192 84.9795 322.259 84.5795C322.392 84.1795 322.492 83.8128 322.559 83.4795C322.692 83.1462 322.792 82.8128 322.859 82.4795C322.925 82.0795 322.959 81.6795 322.959 81.2795C322.959 80.3462 322.259 79.7462 320.859 79.4795C319.525 79.1462 318.359 78.9795 317.359 78.9795C312.692 78.9795 308.959 80.9462 306.159 84.8795C303.359 88.7462 301.959 93.8795 301.959 100.28C301.959 103.813 302.559 107.08 303.759 110.08C304.959 113.08 306.692 115.48 308.959 117.28C311.292 119.08 314.159 119.98 317.559 119.98C320.359 119.98 323.025 119.213 325.559 117.68C328.092 116.08 329.925 113.38 331.059 109.58L333.459 110.38C332.192 114.98 329.925 118.246 326.659 120.18C323.392 122.046 319.859 122.98 316.059 122.98ZM337.931 122.18V119.88L339.531 119.68C341.465 119.413 342.931 119.113 343.931 118.78C344.998 118.38 345.731 117.546 346.131 116.28C346.531 114.946 346.731 112.78 346.731 109.78V60.9795C346.731 57.5128 345.998 55.3128 344.531 54.3795C343.131 53.3795 341.165 52.8795 338.631 52.8795H337.931V50.5795C340.665 50.5795 343.298 50.5128 345.831 50.3795C348.365 50.1795 350.998 49.8462 353.731 49.3795V85.1795C355.265 82.9128 357.431 80.9128 360.231 79.1795C363.031 77.3795 366.298 76.4795 370.031 76.4795C374.565 76.4795 378.131 77.6462 380.731 79.9795C383.398 82.2462 384.731 85.5128 384.731 89.7795V109.78C384.731 112.78 384.931 114.946 385.331 116.28C385.731 117.546 386.431 118.38 387.431 118.78C388.498 119.113 389.998 119.413 391.931 119.68L393.531 119.88V122.18L381.231 121.88L368.931 122.18V119.88L370.531 119.68C372.465 119.413 373.931 119.113 374.931 118.78C375.998 118.38 376.731 117.546 377.131 116.28C377.531 114.946 377.731 112.78 377.731 109.78V89.7795C377.731 86.4462 376.865 83.9128 375.131 82.1795C373.398 80.3795 370.965 79.4795 367.831 79.4795C365.431 79.4795 363.265 80.0462 361.331 81.1795C359.398 82.2462 357.798 83.5795 356.531 85.1795C355.265 86.7795 354.331 88.3128 353.731 89.7795V109.78C353.731 112.78 353.931 114.946 354.331 116.28C354.731 117.546 355.431 118.38 356.431 118.78C357.498 119.113 358.998 119.413 360.931 119.68L362.531 119.88V122.18L350.231 121.88L337.931 122.18ZM397.435 122.18V119.88L399.035 119.68C400.968 119.413 402.435 119.113 403.435 118.78C404.501 118.38 405.235 117.546 405.635 116.28C406.035 114.946 406.235 112.78 406.235 109.78V88.6795C406.235 85.2128 405.501 83.0128 404.035 82.0795C402.635 81.0795 400.668 80.5795 398.135 80.5795H397.435V78.2795C400.168 78.2795 402.801 78.2128 405.335 78.0795C407.868 77.8795 410.501 77.5462 413.235 77.0795V85.1795C414.768 82.9128 416.935 80.9128 419.735 79.1795C422.535 77.3795 425.801 76.4795 429.535 76.4795C434.068 76.4795 437.635 77.6462 440.235 79.9795C442.901 82.2462 444.235 85.5128 444.235 89.7795V109.78C444.235 112.78 444.435 114.946 444.835 116.28C445.235 117.546 445.935 118.38 446.935 118.78C448.001 119.113 449.501 119.413 451.435 119.68L453.035 119.88V122.18L440.735 121.88L428.435 122.18V119.88L430.035 119.68C431.968 119.413 433.435 119.113 434.435 118.78C435.501 118.38 436.235 117.546 436.635 116.28C437.035 114.946 437.235 112.78 437.235 109.78V89.7795C437.235 86.4462 436.368 83.9128 434.635 82.1795C432.901 80.3795 430.468 79.4795 427.335 79.4795C424.935 79.4795 422.768 80.0462 420.835 81.1795C418.901 82.2462 417.301 83.5795 416.035 85.1795C414.768 86.7795 413.835 88.3128 413.235 89.7795V109.78C413.235 112.78 413.435 114.946 413.835 116.28C414.235 117.546 414.935 118.38 415.935 118.78C417.001 119.113 418.501 119.413 420.435 119.68L422.035 119.88V122.18L409.735 121.88L397.435 122.18ZM481.607 122.98C477.341 122.98 473.441 121.946 469.907 119.88C466.441 117.813 463.674 115.046 461.607 111.58C459.607 108.046 458.607 104.146 458.607 99.8795C458.607 95.4795 459.607 91.5128 461.607 87.9795C463.674 84.4462 466.441 81.6462 469.907 79.5795C473.441 77.5128 477.341 76.4795 481.607 76.4795C485.941 76.4795 489.841 77.5128 493.307 79.5795C496.774 81.6462 499.507 84.4462 501.507 87.9795C503.574 91.5128 504.607 95.4795 504.607 99.8795C504.607 104.146 503.574 108.046 501.507 111.58C499.507 115.046 496.774 117.813 493.307 119.88C489.841 121.946 485.941 122.98 481.607 122.98ZM481.607 120.48C485.207 120.48 488.107 119.58 490.307 117.78C492.507 115.913 494.107 113.446 495.107 110.38C496.107 107.246 496.607 103.746 496.607 99.8795C496.607 95.8795 496.107 92.3128 495.107 89.1795C494.107 86.0462 492.507 83.5795 490.307 81.7795C488.107 79.9128 485.207 78.9795 481.607 78.9795C478.007 78.9795 475.107 79.9128 472.907 81.7795C470.707 83.5795 469.107 86.0462 468.107 89.1795C467.107 92.3128 466.607 95.8795 466.607 99.8795C466.607 103.746 467.107 107.246 468.107 110.38C469.107 113.446 470.707 115.913 472.907 117.78C475.107 119.58 478.007 120.48 481.607 120.48ZM512.588 122.18V119.68L514.588 119.48C516.921 119.213 518.688 118.88 519.888 118.48C521.154 118.013 522.021 117.08 522.488 115.68C522.954 114.213 523.188 111.846 523.188 108.58V64.1795C523.188 60.8462 522.954 58.4795 522.488 57.0795C522.021 55.6795 521.154 54.7795 519.888 54.3795C518.688 53.9128 516.921 53.5462 514.588 53.2795L512.588 53.0795V50.5795L527.388 50.8795H532.988L556.788 108.58L583.088 50.8795H589.088L603.088 50.5795V53.0795L601.088 53.2795C598.821 53.5462 597.054 53.9128 595.788 54.3795C594.521 54.7795 593.654 55.6795 593.188 57.0795C592.721 58.4795 592.488 60.8462 592.488 64.1795V108.58C592.488 111.846 592.721 114.213 593.188 115.68C593.654 117.146 594.521 118.08 595.788 118.48C597.054 118.88 598.821 119.213 601.088 119.48L603.088 119.68V122.18L588.288 121.88L573.388 122.18V119.68L575.388 119.48C577.721 119.213 579.488 118.88 580.688 118.48C581.954 118.08 582.821 117.146 583.288 115.68C583.754 114.213 583.988 111.846 583.988 108.58V57.1795L554.388 121.88H552.488L526.688 58.1795V111.38C526.688 113.513 526.954 115.113 527.488 116.18C528.021 117.246 528.888 118.013 530.088 118.48C531.354 118.88 533.088 119.213 535.288 119.48L537.288 119.68V122.18L524.588 121.88L512.588 122.18ZM632.681 122.98C628.415 122.98 624.515 121.946 620.981 119.88C617.515 117.813 614.748 115.046 612.681 111.58C610.681 108.046 609.681 104.146 609.681 99.8795C609.681 95.4795 610.681 91.5128 612.681 87.9795C614.748 84.4462 617.515 81.6462 620.981 79.5795C624.515 77.5128 628.415 76.4795 632.681 76.4795C637.015 76.4795 640.915 77.5128 644.381 79.5795C647.848 81.6462 650.581 84.4462 652.581 87.9795C654.648 91.5128 655.681 95.4795 655.681 99.8795C655.681 104.146 654.648 108.046 652.581 111.58C650.581 115.046 647.848 117.813 644.381 119.88C640.915 121.946 637.015 122.98 632.681 122.98ZM632.681 120.48C636.281 120.48 639.181 119.58 641.381 117.78C643.581 115.913 645.181 113.446 646.181 110.38C647.181 107.246 647.681 103.746 647.681 99.8795C647.681 95.8795 647.181 92.3128 646.181 89.1795C645.181 86.0462 643.581 83.5795 641.381 81.7795C639.181 79.9128 636.281 78.9795 632.681 78.9795C629.081 78.9795 626.181 79.9128 623.981 81.7795C621.781 83.5795 620.181 86.0462 619.181 89.1795C618.181 92.3128 617.681 95.8795 617.681 99.8795C617.681 103.746 618.181 107.246 619.181 110.38C620.181 113.446 621.781 115.913 623.981 117.78C626.181 119.58 629.081 120.48 632.681 120.48ZM662.962 122.18V119.88L664.562 119.68C666.495 119.413 667.962 119.113 668.962 118.78C670.029 118.38 670.762 117.546 671.162 116.28C671.562 114.946 671.762 112.78 671.762 109.78V88.6795C671.762 86.2795 671.395 84.5128 670.662 83.3795C669.995 82.1795 668.995 81.4128 667.662 81.0795C666.329 80.7462 664.762 80.5795 662.962 80.5795V78.2795C665.695 78.2795 668.329 78.2128 670.862 78.0795C673.395 77.8795 676.029 77.5462 678.762 77.0795V84.8795C680.229 82.6128 682.262 80.6462 684.862 78.9795C687.529 77.3128 690.595 76.4795 694.062 76.4795C697.595 76.4795 700.529 77.2462 702.862 78.7795C705.262 80.2462 706.862 82.5795 707.662 85.7795C709.062 83.3795 711.129 81.2462 713.862 79.3795C716.595 77.4462 719.829 76.4795 723.562 76.4795C727.895 76.4795 731.329 77.6128 733.862 79.8795C736.462 82.1462 737.762 85.7462 737.762 90.6795V109.78C737.762 112.713 737.929 114.846 738.262 116.18C738.662 117.446 739.362 118.28 740.362 118.68C741.429 119.08 742.929 119.413 744.862 119.68L746.462 119.88V122.18L734.262 121.88L722.962 122.18V119.88L724.562 119.68C726.229 119.48 727.495 119.18 728.362 118.78C729.295 118.38 729.929 117.546 730.262 116.28C730.595 114.946 730.762 112.78 730.762 109.78V88.9795C730.762 86.0462 729.962 83.7462 728.362 82.0795C726.762 80.3462 724.495 79.4795 721.562 79.4795C719.162 79.4795 717.062 80.0128 715.262 81.0795C713.462 82.1462 711.962 83.4795 710.762 85.0795C709.629 86.6795 708.795 88.2462 708.262 89.7795C708.262 90.0462 708.262 90.3462 708.262 90.6795V109.78C708.262 112.78 708.429 114.946 708.762 116.28C709.095 117.546 709.695 118.38 710.562 118.78C711.495 119.113 712.795 119.413 714.462 119.68L716.062 119.88V122.18L704.762 121.88L693.462 122.18V119.88L695.062 119.68C696.729 119.413 697.995 119.113 698.862 118.78C699.795 118.38 700.429 117.546 700.762 116.28C701.095 114.946 701.262 112.78 701.262 109.78V88.9795C701.262 86.0462 700.462 83.7462 698.862 82.0795C697.262 80.3462 694.995 79.4795 692.062 79.4795C689.729 79.4795 687.662 80.0128 685.862 81.0795C684.062 82.1462 682.562 83.4795 681.362 85.0795C680.162 86.6795 679.295 88.2462 678.762 89.7795V109.78C678.762 112.78 678.929 114.946 679.262 116.28C679.595 117.546 680.195 118.38 681.062 118.78C681.995 119.113 683.295 119.413 684.962 119.68L686.562 119.88V122.18L675.262 121.88L662.962 122.18ZM773.964 122.98C769.564 122.98 765.731 122.046 762.464 120.18C759.198 118.246 756.631 115.613 754.764 112.28C752.964 108.88 752.064 105.013 752.064 100.68C752.064 96.0128 753.064 91.8795 755.064 88.2795C757.064 84.6128 759.731 81.7462 763.064 79.6795C766.464 77.5462 770.198 76.4795 774.264 76.4795C779.398 76.4795 783.398 78.1128 786.264 81.3795C789.198 84.6462 790.664 88.9462 790.664 94.2795C790.664 95.0795 790.631 95.7462 790.564 96.2795C790.498 96.8128 790.431 97.1795 790.364 97.3795H760.164C760.098 98.3128 760.064 99.2462 760.064 100.18C760.064 103.713 760.631 107.013 761.764 110.08C762.898 113.08 764.598 115.48 766.864 117.28C769.198 119.08 772.031 119.98 775.364 119.98C778.498 119.98 781.264 119.113 783.664 117.38C786.131 115.58 788.031 112.946 789.364 109.48L791.764 110.38C788.964 118.78 783.031 122.98 773.964 122.98ZM774.264 78.9795C770.131 78.9795 766.898 80.4462 764.564 83.3795C762.298 86.3128 760.898 90.2128 760.364 95.0795H773.064C776.064 95.0795 778.331 94.7462 779.864 94.0795C781.464 93.3462 782.531 92.4795 783.064 91.4795C783.664 90.4128 783.964 89.3795 783.964 88.3795C783.964 85.4462 782.964 83.1462 780.964 81.4795C778.964 79.8128 776.731 78.9795 774.264 78.9795ZM798.02 122.18V119.88L799.62 119.68C801.554 119.413 803.02 119.113 804.02 118.78C805.087 118.38 805.82 117.546 806.22 116.28C806.62 114.946 806.82 112.78 806.82 109.78V88.6795C806.82 85.2128 806.087 83.0128 804.62 82.0795C803.22 81.0795 801.254 80.5795 798.72 80.5795H798.02V78.2795C800.754 78.2795 803.387 78.2128 805.92 78.0795C808.454 77.8795 811.087 77.5462 813.82 77.0795V85.1795C815.354 82.9128 817.52 80.9128 820.32 79.1795C823.12 77.3795 826.387 76.4795 830.12 76.4795C834.654 76.4795 838.22 77.6462 840.82 79.9795C843.487 82.2462 844.82 85.5128 844.82 89.7795V109.78C844.82 112.78 845.02 114.946 845.42 116.28C845.82 117.546 846.52 118.38 847.52 118.78C848.587 119.113 850.087 119.413 852.02 119.68L853.62 119.88V122.18L841.32 121.88L829.02 122.18V119.88L830.62 119.68C832.554 119.413 834.02 119.113 835.02 118.78C836.087 118.38 836.82 117.546 837.22 116.28C837.62 114.946 837.82 112.78 837.82 109.78V89.7795C837.82 86.4462 836.954 83.9128 835.22 82.1795C833.487 80.3795 831.054 79.4795 827.92 79.4795C825.52 79.4795 823.354 80.0462 821.42 81.1795C819.487 82.2462 817.887 83.5795 816.62 85.1795C815.354 86.7795 814.42 88.3128 813.82 89.7795V109.78C813.82 112.78 814.02 114.946 814.42 116.28C814.82 117.546 815.52 118.38 816.52 118.78C817.587 119.113 819.087 119.413 821.02 119.68L822.62 119.88V122.18L810.32 121.88L798.02 122.18ZM875.117 122.98C871.85 122.98 869.183 122.013 867.117 120.08C865.117 118.08 864.117 114.846 864.117 110.38V80.7795H856.717V78.2795L859.417 78.0795C862.15 77.8795 864.217 76.7795 865.617 74.7795C867.083 72.7128 868.05 69.8462 868.517 66.1795H871.117V78.2795H883.917V80.7795H871.117V110.78C871.117 116.646 873.183 119.58 877.317 119.58C879.05 119.58 880.45 119.013 881.517 117.88C882.583 116.68 883.55 115.213 884.417 113.48L886.617 114.58C886.217 115.58 885.717 116.513 885.117 117.38C884.583 118.18 884.05 118.88 883.517 119.48C882.383 120.746 881.083 121.646 879.617 122.18C878.217 122.713 876.717 122.98 875.117 122.98ZM908.803 122.98C906.27 122.98 904.103 122.68 902.303 122.08C900.57 121.546 899.203 121.046 898.203 120.58C897.137 120.046 896.47 119.78 896.203 119.78C895.937 119.78 895.703 119.913 895.503 120.18C895.37 120.38 895.203 120.946 895.003 121.88H892.703L893.103 115.28L893.403 106.78H895.603L895.703 108.48C895.837 110.346 896.437 112.213 897.503 114.08C898.637 115.946 900.17 117.513 902.103 118.78C904.037 120.046 906.27 120.68 908.803 120.68C911.537 120.68 913.737 119.98 915.403 118.58C917.07 117.18 917.903 115.246 917.903 112.78C917.903 110.646 917.037 108.846 915.303 107.38C913.637 105.913 911.303 104.613 908.303 103.48L904.703 102.08C901.237 100.746 898.603 99.0795 896.803 97.0795C895.07 95.0795 894.203 92.5128 894.203 89.3795C894.203 86.7128 894.803 84.4462 896.003 82.5795C897.27 80.6462 898.903 79.1462 900.903 78.0795C902.97 77.0128 905.17 76.4795 907.503 76.4795C909.17 76.4795 910.57 76.6795 911.703 77.0795C912.903 77.4795 913.903 77.8795 914.703 78.2795C915.37 78.6128 915.937 78.7795 916.403 78.7795C917.07 78.7795 917.603 78.0795 918.003 76.6795L920.203 76.7795L919.803 83.2795V90.2795H917.503C917.037 87.1462 915.97 84.4462 914.303 82.1795C912.637 79.8462 910.237 78.6795 907.103 78.6795C904.903 78.6795 903.037 79.3795 901.503 80.7795C900.037 82.1795 899.303 83.9462 899.303 86.0795C899.303 88.1462 900.07 89.8795 901.603 91.2795C903.203 92.6128 905.37 93.8128 908.103 94.8795L912.003 96.3795C916.07 97.9128 918.87 99.7795 920.403 101.98C922.003 104.113 922.803 106.68 922.803 109.68C922.803 113.213 921.603 116.313 919.203 118.98C916.803 121.646 913.337 122.98 908.803 122.98Z" fill="#0A1628"/>
</svg>
